<?xml version="1.0" encoding="UTF-8" standalone="no"?>
<!-- Created with Inkscape (http://www.inkscape.org/) -->

<svg
   xmlns:osb="http://www.openswatchbook.org/uri/2009/osb"
   xmlns:dc="http://purl.org/dc/elements/1.1/"
   xmlns:cc="http://creativecommons.org/ns#"
   xmlns:rdf="http://www.w3.org/1999/02/22-rdf-syntax-ns#"
   xmlns:svg="http://www.w3.org/2000/svg"
   xmlns="http://www.w3.org/2000/svg"
   xmlns:sodipodi="http://sodipodi.sourceforge.net/DTD/sodipodi-0.dtd"
   xmlns:inkscape="http://www.inkscape.org/namespaces/inkscape"
   width="380"
   height="340"
   id="svg2"
   version="1.1"
   inkscape:version="0.48.4 r9939"
   sodipodi:docname="drawing-2.svg">
  <defs
     id="defs4">
    <linearGradient
       id="linearGradient5296"
       osb:paint="solid">
      <stop
         style="stop-color:#502d16;stop-opacity:1;"
         offset="0"
         id="stop5298" />
    </linearGradient>
    <clipPath
       clipPathUnits="userSpaceOnUse"
       id="clipPath3013">
      <rect
         style="fill:none"
         id="rect3015"
         width="382.66705"
         height="338.00018"
         x="25.00775"
         y="2.8695314"
         ry="0" />
    </clipPath>
  </defs>
  <sodipodi:namedview
     id="base"
     pagecolor="#ffffff"
     bordercolor="#666666"
     borderopacity="1.0"
     inkscape:pageopacity="0.0"
     inkscape:pageshadow="2"
     inkscape:zoom="1.4909578"
     inkscape:cx="189.62694"
     inkscape:cy="111.72573"
     inkscape:document-units="px"
     inkscape:current-layer="layer1"
     showgrid="false"
     inkscape:window-width="1366"
     inkscape:window-height="706"
     inkscape:window-x="-8"
     inkscape:window-y="-8"
     inkscape:window-maximized="1" />
  <metadata
     id="metadata7">
    <rdf:RDF>
      <cc:Work
         rdf:about="">
        <dc:format>image/svg+xml</dc:format>
        <dc:type
           rdf:resource="http://purl.org/dc/dcmitype/StillImage" />
        <dc:title />
      </cc:Work>
    </rdf:RDF>
  </metadata>
  <g
     inkscape:label="Layer 1"
     inkscape:groupmode="layer"
     id="layer1">
    <g
       id="g2996"
       transform="translate(-25.007748,-6.5081523)"
       clip-path="url(#clipPath3013)">
      <path
         style="fill:#dd996b"
         d="m 3.7857437,345.95982 c 0,-8.10101 -1.0094785,-7.78734 10.5000003,-3.26264 6.00085,2.3591 8.498725,2.76098 17.5,2.81558 8.697038,0.0528 11.552099,-0.33798 16.627163,-2.27551 5.791994,-2.21124 6.297249,-2.25125 9.236502,-0.7313 4.323915,2.23598 10.136335,7.49663 10.136335,9.17409 0,1.16612 -5.277295,1.39641 -32,1.39641 l -32.0000003,0 0,-7.11663 z m 373.9999963,5.93692 c 0,-0.96646 9.60961,-0.88024 19.5,0.17495 5.9356,0.63327 4.98524,0.73911 -6.25,0.69608 -7.2875,-0.0279 -13.25,-0.41987 -13.25,-0.87103 z M 208.34483,335.99418 c -7.13212,-6.26207 -7.28388,-15.0076 -0.91375,-52.65704 1.32507,-7.83162 2.65747,-14.88622 2.96088,-15.67689 0.41169,-1.07286 -0.54663,-1.56834 -3.77729,-1.95298 -2.38091,-0.28348 -8.1202,-0.99152 -12.75397,-1.57343 -7.07309,-0.88824 -8.79249,-0.81727 -10.71482,0.44229 -4.61191,3.02184 -15.72167,1.42916 -20.28486,-2.90801 -2.03423,-1.93346 -6.25196,-3.28788 -20.07528,-6.44669 -39.98572,-9.13727 -85.672936,-25.80537 -81.679214,-29.7991 0.286579,-0.28657 4.603635,1.09336 9.593456,3.06654 4.989822,1.97317 9.750409,3.58758 10.579083,3.58758 1.652621,0 1.812899,-3.9964 0.639795,-15.95275 l -0.633116,-6.45275 -3.423254,-0.0472 c -2.937646,-0.0406 -3.539851,-0.47282 -4.245193,-3.04725 -1.157814,-4.22592 -0.627021,-5.03397 5.624199,-8.56194 5.50613,-3.10746 6.462815,-4.25232 4.544248,-5.43806 -2.217337,-1.37039 -0.740632,-3.59774 3.966756,-5.98315 5.696167,-2.88647 8.265846,-3.14643 10.034641,-1.01517 1.086176,1.30877 2.177602,0.98759 8.495549,-2.5 3.9871,-2.20092 7.73803,-4.00168 8.3354,-4.00168 0.59737,0 3.14678,1.2375 5.66536,2.75 3.41713,2.05212 8.1223,7.36091 18.54076,20.91937 7.67884,9.99316 13.96153,18.89948 13.96153,19.79182 0,1.03071 -2.36532,2.6837 -6.48524,4.53219 -4.55587,2.04408 -7.08351,3.89102 -8.49626,6.20817 -1.10606,1.81415 -2.01271,3.62558 -2.01476,4.0254 -0.008,1.53657 5.5886,4.25917 16.23433,7.8977 8.91079,3.04556 11.46739,3.56817 13.12245,2.68241 1.13054,-0.60505 2.97441,-1.15511 4.0975,-1.22236 2.30054,-0.13775 2.32074,-0.55652 0.45288,-9.38821 -1.5494,-7.32595 -0.84757,-9.2096 3.94333,-10.58362 1.73018,-0.4962 3.14577,-1.203 3.14577,-1.57067 0,-0.36766 -1.80362,-3.65892 -4.00805,-7.3139 -7.37677,-12.23087 -7.70092,-20.81201 -1.06024,-28.06807 5.8794,-6.42425 5.97014,-7.87143 0.87509,-13.95639 -11.26715,-13.45622 -16.6407,-25.68617 -18.86752,-42.94163 -4.39671,-34.069793 19.15862,-68.95659 53.56072,-79.326485 3.3,-0.994725 6.42552,-2.172718 6.9456,-2.61776 0.56463,-0.483162 -0.3147,-2.597168 -2.18254,-5.247105 -3.88492,-5.511577 -2.80273,-7.074253 4.17451,-6.027952 2.50934,0.376298 4.56243,0.445323 4.56243,0.153389 0,-0.291934 -2.53479,-3.605528 -5.63287,-7.363543 -6.38902,-7.749959 -8.36713,-11.721881 -8.36713,-16.800636 0,-4.153696 1.47212,-4.491041 8.22976,-1.885895 5.03052,1.939318 10.93717,7.174066 14.75636,13.077765 2.7465,4.245519 4.01388,4.572643 4.01388,1.03602 0,-3.410214 3.26681,-1.482475 5.78713,3.414973 2.54092,4.937503 3.19418,10.277411 1.89159,15.46246 l -0.78819,3.137442 7.36455,1.638455 c 4.0505,0.901151 12.05843,3.941208 17.79542,6.755684 9.23145,4.528808 11.52433,6.221904 19.94019,14.724103 15.51667,15.675871 22.0247,30.919345 21.99453,51.516835 -0.0284,19.39726 -5.74958,34.24092 -19.20285,49.82216 -4.82605,5.5894 -4.92008,5.82059 -3.77658,9.28542 0.64498,1.95432 2.28054,4.27919 3.63456,5.16638 3.51738,2.30467 5.35965,6.46971 5.35965,12.1172 0,6.12044 -1.26229,9.78017 -6.14594,17.81882 -2.11973,3.48916 -3.85406,6.5208 -3.85406,6.73699 0,0.21619 1.41961,0.67699 3.15469,1.02401 6.45047,1.29009 7.14217,3.8996 3.83241,14.45815 -1.09291,3.48651 -1.9871,6.7631 -1.9871,7.28133 0,0.51823 1.5339,0.83893 3.40868,0.71267 1.87477,-0.12626 4.11146,0.3537 4.97043,1.06658 1.11374,0.92432 3.07627,1.08898 6.84132,0.57398 8.20991,-1.12298 9.9309,-2.02253 9.22793,-4.82338 -0.32877,-1.30993 -0.0968,-4.24212 0.51548,-6.51598 1.64044,-6.09212 4.44191,-5.67782 7.54436,1.11571 2.44233,5.34808 5.4918,15.81345 5.4918,18.84715 0,1.4042 1.48628,1.03618 9.13795,-2.26263 5.02588,-2.16678 13.91338,-5.04595 19.75,-6.39816 5.83663,-1.35222 12.1488,-2.88425 14.02705,-3.40451 4.40276,-1.21953 5.15405,-0.66486 4.41139,3.25692 -0.83745,4.42241 -2.13659,6.71123 -3.80931,6.71123 -0.99641,0 -1.50161,1.52856 -1.71482,5.1884 l -0.30226,5.1884 -11,2.21624 c -12.33133,2.48447 -20.64243,5.19775 -27.27318,8.90375 -6.2027,3.46676 -7.22682,3.27661 -7.22682,-1.3418 0,-2.55157 -0.6607,-4.44294 -1.96406,-5.62247 -1.08024,-0.97759 -2.73508,-3.85984 -3.67743,-6.40498 -0.94235,-2.54515 -1.8221,-4.77862 -1.95501,-4.96328 -0.1329,-0.18465 -3.67189,0.21763 -7.86443,0.89395 -5.49854,0.88701 -7.89453,1.73745 -8.59793,3.05178 -2.01454,3.76419 -16.56015,5.44976 -20.01872,2.3198 -1.31758,-1.1924 -3.97782,-1.33363 -14.80169,-0.78581 -7.25747,0.36731 -13.42977,1.04703 -13.7162,1.51049 -0.28643,0.46346 0.45178,4.10581 1.64048,8.09409 4.32623,14.51527 5.00712,17.20435 6.037,23.84204 0.86437,5.57104 0.78265,7.27044 -0.46573,9.68453 -3.17056,6.1312 -11.19081,8.44618 -16.18945,4.67295 -2.72614,-2.05782 -4.2665,-4.42358 -7.12835,-10.94808 l -1.75452,-4 -0.52198,15.0818 c -0.50014,14.45087 -0.63466,15.22937 -3.21553,18.60927 -5.55659,7.2769 -14.35869,8.89699 -20.24736,3.72666 z m -3.55909,-81.91773 c 0,-0.55 -0.38385,-1 -0.85301,-1 -0.46916,0 -4.73379,-3.63089 -9.47697,-8.06864 -7.09957,-6.64242 -9.11155,-8.01233 -11.38242,-7.75 -2.6079,0.30125 -2.74215,0.56426 -2.45963,4.81864 0.25698,3.86977 0.87563,4.99018 4.41734,8 4.07578,3.46369 7.52991,4.51038 16.00469,4.84981 2.0625,0.0826 3.75,-0.29981 3.75,-0.84981 z m 70.72611,-1.35837 c 2.52681,-1.30666 3.30083,-2.54002 4.18688,-6.67154 1.67122,-7.79259 1.47901,-8.97009 -1.4642,-8.97009 -1.75368,0 -5.27055,2.38932 -11.25,7.64313 -13.3104,11.6951 -12.99004,10.66368 -3.13567,10.09536 4.97666,-0.28701 9.86143,-1.16523 11.66299,-2.09686 z m -134.75772,-5.39163 c -0.0174,-0.4125 -2.07101,-1.98801 -4.56362,-3.50113 -3.49899,-2.12405 -4.95841,-2.52294 -6.40265,-1.75 -1.02885,0.55062 -3.13772,1.01481 -4.68638,1.03154 -4.29195,0.0464 -1.02306,1.54805 7.20973,3.3121 8.56859,1.836 8.48166,1.82666 8.44292,0.90749 z m -25.46839,-39.25 c -0.33992,-0.55 -1.96803,-1 -3.61803,-1 -1.74536,0 -2.74153,0.41821 -2.38197,1 0.33992,0.55 1.96803,1 3.61803,1 1.74536,0 2.74153,-0.41821 2.38197,-1 z m -9.5318,-0.75 c -0.0175,-0.4125 -0.63928,-1.55073 -1.38174,-2.52939 -1.21285,-1.5987 -1.4127,-1.61578 -1.96819,-0.16821 -1.02592,2.67351 -0.71568,3.4476 1.38173,3.4476 1.1,0 1.98569,-0.3375 1.9682,-0.75 z m 13.0318,-1.75 c 0,-0.825 -0.7301,-1.5 -1.62244,-1.5 -1.3288,0 -1.39713,0.27149 -0.37756,1.5 0.68469,0.825 1.41479,1.5 1.62244,1.5 0.20766,0 0.37756,-0.675 0.37756,-1.5 z m -7,-2.5 c 0,-0.55 -0.92656,-1 -2.05902,-1 -1.13246,0 -1.7809,0.45 -1.44098,1 0.33992,0.55 1.26648,1 2.05902,1 0.79254,0 1.44098,-0.45 1.44098,-1 z m 105.28324,-84.60524 c 2.86922,-1.43288 6.6496,-3.9674 8.40085,-5.63228 1.95594,-1.85947 3.78808,-2.79527 4.75,-2.42615 1.01279,0.38865 1.56591,0.0445 1.56591,-0.97429 0,-1.9323 13.81855,-16.362041 15.669,-16.362041 2.20156,0 1.58132,0.918524 -4.169,6.173995 -3.025,2.764676 -5.5,5.431536 -5.5,5.926346 0,0.49481 1.11088,0.89966 2.46862,0.89966 1.78348,0 2.30886,0.41631 1.89301,1.5 -0.40979,1.06788 0.10339,1.50876 1.78138,1.53041 3.48185,0.0449 0.40561,1.5715 -4.94416,2.45353 -5.47066,0.90196 -5.01365,2.49925 1.36717,4.77847 12.43264,4.44093 29.25199,-2.70037 32.29214,-13.71087 2.63462,-9.541806 -6.17712,-18.245557 -19.55946,-19.319762 -8.69535,-0.697979 -14.36211,1.120629 -20.39596,6.545575 l -4.99155,4.487837 -2.2056,-2.015622 c -4.16511,-3.806367 -8.99906,-5.587422 -15.20559,-5.602459 -16.87879,-0.04089 -28.82308,10.466755 -24.92818,21.929851 3.62122,10.65763 19.92335,15.70474 31.71142,9.8178 z m -3.9331,-6.86003 c 1.01757,-0.77091 1.55352,-1.8816 1.19098,-2.4682 -0.38533,-0.62347 0.1962,-1.06653 1.39986,-1.06653 3.02987,0 2.52027,-1.55691 -1.54079,-4.70737 -1.97989,-1.53595 -4.56739,-3.541395 -5.75,-4.456551 -3.66217,-2.833964 -1.07166,-3.127229 3.29186,-0.372663 6.92699,4.372814 12.05795,9.544204 12.05795,12.152944 0,2.26066 -0.32247,2.382 -6.25,2.35184 -5.57736,-0.0284 -6.05088,-0.18266 -4.39986,-1.43347 z M 93.785744,326.24789 c 0,-2.22256 6.353476,-9.95606 9.999486,-12.17144 2.26292,-1.375 5.27311,-4.01025 6.68928,-5.85611 2.47971,-3.23206 7.58834,-6.14389 10.77911,-6.14389 2.7752,0 1.5973,1.82338 -1.92988,2.98746 -3.09034,1.0199 -3.4017,1.44406 -2.9003,3.95102 0.68053,3.40269 -2.68714,6.3382 -6.24647,5.44486 -1.8828,-0.47255 -2.29307,-0.1085 -2.56616,2.27709 -0.2882,2.51748 -0.69926,2.82224 -3.62391,2.68681 -2.81968,-0.13057 -3.65669,0.41412 -5.762541,3.75 -2.262088,3.58338 -4.438615,5.09085 -4.438615,3.0742 z m 40.199996,-19.37144 c -0.66,-0.66 -1.2,-1.8806 -1.2,-2.71244 0,-0.83183 -1.23232,-2.49505 -2.73849,-3.69602 -2.60772,-2.07933 -2.67682,-2.35411 -1.44718,-5.75462 0.97344,-2.69201 1.01506,-4.08718 0.16909,-5.6679 -2.25891,-4.22081 4.35888,-7.11503 7.20988,-3.15317 0.71868,0.99872 2.10095,2.11219 3.07171,2.47438 2.77044,1.03365 4.12334,5.62317 2.26341,7.67836 -0.84063,0.92889 -1.52842,3.47596 -1.52842,5.66015 0,3.91536 -1.34913,6.37126 -3.5,6.37126 -0.605,0 -1.64,-0.54 -2.3,-1.2 z M 41.198856,255.71062 c -2.434063,-6.34307 6.959917,-17.5684 17.293008,-20.66427 3.394202,-1.01693 4.550948,-0.94175 7.572666,0.49215 1.961582,0.93083 3.812198,2.33267 4.112479,3.11519 0.345416,0.90014 2.005985,1.42276 4.520646,1.42276 4.347494,0 7.425718,2.83693 6.363638,5.8648 -2.305089,6.57156 -11.420014,10.18061 -27.50459,10.89041 -10.246271,0.45217 -11.808534,0.31045 -12.357847,-1.12104 z M 374.39036,243.82645 c -1.60155,-6.01885 -2.33969,-10.27682 -1.95523,-11.27872 0.25288,-0.65897 3.62591,-2.44033 7.49563,-3.95856 8.10152,-3.17852 8.42272,-3.04133 11.31397,4.8325 2.15195,5.86047 1.76709,6.37812 -7.06166,9.49814 -6.97867,2.46621 -9.32005,2.68298 -9.79271,0.90664 z M 41.731525,224.252 c -5.996619,-3.80972 -11.945781,-12.70283 -11.945781,-17.85715 0,-1.3171 1.019412,-1.44671 6.75,-0.85823 7.924028,0.81372 16.433958,4.37579 21,8.79014 3.987384,3.85491 4.106848,6.5546 0.445281,10.0626 -3.936065,3.77099 -10.18072,3.7182 -16.2495,-0.13736 z M 151.03574,167.37605 c -0.6875,-0.25645 -1.25,-1.13032 -1.25,-1.94195 0,-0.81163 0.46971,-1.18539 1.0438,-0.83058 0.5741,0.35481 1.70997,0.0922 2.52417,-0.58348 0.8142,-0.67573 1.78199,-0.92697 2.15064,-0.55831 0.97964,0.97964 -2.99719,4.46319 -4.46861,3.91432 z m 162.33014,-34.5496 c -0.72479,-1.7875 -1.57377,-5.95 -1.88664,-9.25 l -0.56883,-6 1.95273,2.37939 c 1.38695,1.68999 1.65514,2.73795 0.92565,3.61694 -0.63608,0.76643 -0.71995,2.71582 -0.22031,5.12061 0.60496,2.91168 1.2959,3.88306 2.76202,3.88306 1.52671,0 1.91157,-0.62032 1.75598,-2.83034 -0.16671,-2.36795 0.0375,-2.63384 1.25,-1.62755 1.75824,1.45921 1.89305,5.1141 0.24926,6.75789 -2.21052,2.21052 -4.84429,1.34246 -6.21986,-2.05 z M 122.78574,101.46261 c -1.99212,-0.87401 -4.90018,-1.31505 -6.75,-1.02373 -3.91112,0.61594 -4.21704,-0.4063 -0.62111,-2.075492 2.11749,-0.982913 3.15007,-0.935482 5.44254,0.25 3.75006,1.939232 9.28037,1.852982 13.22823,-0.206297 1.76019,-0.918146 4.94128,-1.571764 7.06909,-1.452483 3.95796,0.221875 7.63125,-1.92521 7.63125,-4.460566 0,-0.699838 -1.1937,-2.211396 -2.65266,-3.359017 -1.45897,-1.147622 -2.37916,-2.36009 -2.04487,-2.694375 0.99167,-0.991678 6.69753,5.315946 6.69753,7.403888 0,3.091407 -3.33108,5.249043 -9.11285,5.902659 -2.96293,0.334953 -6.6023,1.221063 -8.08749,1.969123 -3.45217,1.73881 -6.41684,1.66917 -10.79966,-0.25371 z m 11.87244,-16.136161 c -1.24387,-1.586056 -1.2085,-1.621426 0.37756,-0.377555 1.66575,1.306369 2.19548,2.127555 1.37244,2.127555 -0.20765,0 -0.99515,-0.7875 -1.75,-1.75 z M 348.82687,46.389757 c -1.35239,-0.278934 -4.60898,-1.354645 -7.23689,-2.390468 -3.61271,-1.423999 -5.4068,-1.644247 -7.35622,-0.903077 -4.10868,1.562115 -12.58275,1.102198 -17.04695,-0.925197 -4.73833,-2.15189 -8.28864,-6.626915 -9.06806,-11.429921 -0.74255,-4.575783 3.88546,-9.946452 9.90305,-11.492203 7.96851,-2.046889 10.76394,-2.37201 10.76394,-1.251897 0,0.5937 -1.0125,1.081965 -2.25,1.085032 -7.51345,0.01862 -15.75,5.221224 -15.75,9.948458 0,6.133256 6.5213,10.045965 16.74357,10.045965 3.23475,0 5.4529,-0.531809 6.25643,-1.5 1.67919,-2.023297 2.43575,-1.92316 8.72764,1.155174 4.53723,2.219864 6.6849,2.637028 13.09967,2.5445 8.21459,-0.118489 17.11252,-2.596519 22.11574,-6.159119 3.61278,-2.57253 5.05695,-2.584112 5.05695,-0.04056 0,1.1 0.36832,2 0.8185,2 2.69299,0 11.08421,-3.380822 13.31787,-5.365765 5.5065,-4.893371 4.50954,-9.576282 -2.71949,-12.774028 -3.71483,-1.643244 -5.24212,-1.800743 -9.66448,-0.996635 -2.88882,0.525268 -5.74792,0.658347 -6.35356,0.29573 -3.2523,-1.947253 -12.57449,-11.1593023 -11.29274,-11.1593023 1.91194,0 7.25674,3.9202673 9.86422,7.2351433 1.92795,2.450989 2.31067,2.526005 10.33351,2.025477 8.26761,-0.515797 8.35951,-0.495111 11.99984,2.701148 4.73849,4.160443 6.34521,9.549489 4.30381,14.435249 -2.07478,4.96564 -6.40076,6.877443 -16.60748,7.339425 -6.66916,0.301864 -9.68466,0.964012 -14,3.074145 -4.428,2.165223 -7.05927,2.720643 -13.5,2.849644 -4.4,0.08813 -9.10649,-0.06799 -10.45887,-0.346923 z M 330.28574,19.076449 c -0.33992,-0.55 -0.1222,-1 0.48382,-1 0.60603,0 3.22008,-1.962139 5.80902,-4.360309 5.09366,-4.7183317 9.02256,-7.1576241 9.98247,-6.1977106 0.33222,0.3322117 -0.47997,1.3632813 -1.80485,2.2912658 -1.32489,0.9279848 -4.77888,3.6176338 -7.67554,5.9769988 -5.74889,4.682529 -5.89147,4.751563 -6.79492,3.289755 z"
         id="path3010"
         inkscape:connector-curvature="0" />
      <path
         style="fill:#6690b6"
         d="m 3.7857437,346.22241 0,-6.85405 4.8800664,2.33551 c 12.4404969,5.95381 26.1516489,6.97422 38.6947299,2.87975 l 7.63659,-2.49284 3.144307,2.15372 c 4.171125,2.85705 8.644307,7.00667 8.644307,8.01904 0,0.4471 -14.175,0.81291 -31.5,0.81291 l -31.5000003,0 0,-6.85404 z m 373.9999963,5.85404 c 0,-0.55 0.45,-1 1,-1 0.55,0 1,0.45 1,1 0,0.55 -0.45,1 -1,1 -0.55,0 -1,-0.45 -1,-1 z m 11.75,0.2766 c 1.7875,-0.22182 4.7125,-0.22182 6.5,0 1.7875,0.22183 0.325,0.40333 -3.25,0.40333 -3.575,0 -5.0375,-0.1815 -3.25,-0.40333 z m -176.25,-15.02103 c -1.1,-0.25412 -2.83357,-1.20203 -3.85238,-2.10645 -3.79165,-3.36594 -4.64762,-6.69938 -4.64762,-18.09946 0,-11.92026 -0.38406,-10.94267 6.5,-16.54502 2.38452,-1.94055 2.62748,-2.44792 1.18426,-2.47304 -0.99866,-0.0174 -2.68616,0.43423 -3.75,1.00358 -1.69649,0.90794 -1.9354,0.69282 -1.94357,-1.75 -0.005,-1.53185 1.20914,-9.22846 2.69835,-17.10357 2.00978,-10.62789 2.40628,-14.50467 1.53834,-15.04108 -2.20511,-1.36284 -25.96168,-3.35213 -27.89517,-2.33584 -5.88911,3.09545 -15.88394,1.70207 -19.45886,-2.71277 -1.24411,-1.53641 -4.3239,-2.67019 -11.09321,-4.08379 -13.46549,-2.81193 -38.72191,-9.42557 -49.74758,-13.02688 -10.839531,-3.54052 -30.317886,-11.03593 -29.847859,-11.48567 0.320498,-0.30667 10.244844,2.62592 23.815303,7.0373 9.752956,3.17042 38.017646,10.10203 44.749996,10.97446 2.8875,0.37419 5.24448,0.30061 5.23774,-0.1635 -0.0199,-1.37025 -15.33073,-9.83731 -17.21248,-9.5187 -1.42123,0.24063 -1.11328,-0.94521 1.75,-6.73883 1.91111,-3.86697 3.47474,-7.73405 3.47474,-8.59352 0,-2.60194 -18.40426,-37.48157 -19.78024,-37.48738 -0.70413,-0.003 -8.35416,4.64084 -17.000047,10.3196 -15.99289,10.50437 -21.514004,12.95641 -22.629256,10.05011 -1.532872,-3.9946 -0.502193,-5.28559 8.659547,-10.84667 5.0875,-3.08806 9.925,-5.96162 10.75,-6.38568 0.825,-0.42406 5.641406,-2.88132 10.703126,-5.46058 l 9.20313,-4.68957 4.60334,2.75369 c 3.29681,1.97213 7.79683,6.86912 15.85501,17.25369 16.29781,21.00294 16.86917,21.81272 16.17864,22.93002 -0.60935,0.98595 -3.47233,2.42489 -10.38439,5.21925 -2.97198,1.20149 -7.15886,6.83172 -7.15886,9.62675 0,1.33864 6.70428,4.69971 16,8.02132 11.1521,3.98495 14.72844,4.67292 16.52797,3.17944 0.80042,-0.66429 2.54069,-0.92538 3.89776,-0.58478 1.34843,0.33844 2.70604,0.20381 3.01689,-0.29916 0.31086,-0.50298 -0.40483,-4.53877 -1.59041,-8.96842 -2.48642,-9.28989 -1.86467,-11.12442 3.77023,-11.12442 1.85766,0 3.37756,-0.38824 3.37756,-0.86276 0,-0.47452 -2.24897,-4.90423 -4.99772,-9.84379 -7.48167,-13.44476 -7.73281,-22.22892 -0.79084,-27.66182 1.68675,-1.32008 3.63566,-4.05479 4.3309,-6.07712 l 1.26409,-3.67698 -5.89969,-6.64616 c -25.04088,-28.20931 -24.44664,-70.26999 1.38289,-97.881835 11.12733,-11.895149 20.02231,-16.901562 42.45032,-23.892551 0.83685,-0.260853 0.26793,-1.82676 -1.75,-4.816768 -1.64447,-2.436647 -2.98995,-4.761756 -2.98995,-5.166911 0,-1.358794 8.13282,0.336916 10.08375,2.102484 2.73682,2.476793 3.63738,0.915002 1.52974,-2.65295 -1.30167,-2.203552 -1.49182,-3.364522 -0.70611,-4.311243 1.27486,-1.536105 0.44667,-2.611597 -2.01107,-2.611597 -2.14425,0 -8.35649,-6.35649 -10.26172,-10.5 -0.75869,-1.65 -1.65059,-4.4625 -1.98201,-6.25 -0.56512,-3.047942 -0.42523,-3.25 2.24998,-3.25 1.5689,0 3.41275,0.675 4.09744,1.5 0.68469,0.825 1.9961,1.5 2.91424,1.5 2.04868,0 9.29876,7.366158 11.43391,11.616983 0.8611,1.714341 2.45774,6.439341 3.54808,10.5 l 1.98245,7.383017 0.0607,-8.75 c 0.0693,-10.000893 1.15452,-11.052719 4.23004,-4.100002 1.9829,4.482681 2.02458,5.473114 0.62222,14.78661 -0.24888,1.652863 0.84892,2.20018 7.49264,3.73554 18.56414,4.290156 35.75351,15.56887 46.22129,30.327852 9.61571,13.557601 13.50352,25.645261 13.47969,41.909961 -0.029,19.78195 -5.95063,34.86779 -19.45097,49.55278 -5.18895,5.64428 -5.44239,6.15635 -4.33851,8.76586 0.64481,1.52427 3.00205,4.70306 5.23832,7.06398 3.98591,4.20809 4.06594,4.43528 4.06594,11.54184 0,6.91275 -0.24003,7.66388 -5.17071,16.18121 -2.84389,4.91257 -4.95483,9.28124 -4.69098,9.70816 0.26385,0.42691 1.97307,0.77621 3.79826,0.77621 5.74837,0 6.22632,1.82194 3.15907,12.04234 -1.48313,4.94192 -2.39734,9.4695 -2.03159,10.06129 0.40231,0.65095 2.04197,0.81766 4.15085,0.42203 2.52304,-0.47332 3.98178,-0.20515 5.28131,0.97091 1.58012,1.42999 2.55754,1.47609 8.14962,0.3844 6.95013,-1.35682 9.10591,-3.02976 8.25794,-6.40837 -0.30425,-1.21221 -0.0522,-4.06445 0.56007,-6.33831 1.64044,-6.09212 4.44191,-5.67782 7.54436,1.11571 2.44233,5.34808 5.4918,15.81345 5.4918,18.84715 0,1.4042 1.48628,1.03618 9.13795,-2.26263 5.02588,-2.16678 13.91338,-5.04595 19.75,-6.39816 5.83663,-1.35222 12.1488,-2.88425 14.02705,-3.40451 4.40276,-1.21953 5.15405,-0.66486 4.41139,3.25692 -0.83745,4.42241 -2.13659,6.71123 -3.80931,6.71123 -0.99641,0 -1.50161,1.52856 -1.71482,5.1884 l -0.30226,5.1884 -11,2.21624 c -12.33133,2.48447 -20.64243,5.19775 -27.27318,8.90375 -6.12681,3.42434 -7.22682,3.25654 -7.22682,-1.10243 0,-2.37671 -0.84301,-4.60751 -2.47336,-6.54507 -1.36035,-1.61668 -3.02061,-4.76598 -3.68948,-6.99845 -0.66886,-2.23246 -1.84838,-4.30165 -2.62116,-4.59819 -2.56998,-0.9862 -15.18678,1.82424 -16.13386,3.59387 -1.90339,3.55651 -17.13058,5.31117 -19.05595,2.19585 -0.65896,-1.06621 -3.69918,-1.1896 -15.17512,-0.61588 -7.89309,0.39461 -14.73816,1.09466 -15.21127,1.55568 -0.71571,0.69743 0.54503,5.83439 3.17028,12.91751 0.39757,1.07265 -0.10374,1.24343 -2.14566,0.73094 -3.71521,-0.93245 -3.48702,1.39409 0.35094,3.57806 3.60605,2.05199 4.77202,4.84464 6.25008,14.96966 1.34413,9.20757 0.42368,12.04853 -4.69437,14.48916 -6.60331,3.1489 -12.84868,-1.07443 -15.60095,-10.54987 -0.57793,-1.9897 -1.98011,-10.59263 -3.11596,-19.11763 -1.13585,-8.525 -2.4677,-15.9275 -2.95967,-16.45 -2.21314,-2.35049 -2.62902,1.43627 -1.20259,10.95 1.58491,10.57067 2.38354,48.75144 1.04777,50.09132 -0.41819,0.41947 -1.39389,-0.10376 -2.16824,-1.16275 -1.9054,-2.60579 -2.9281,-1.30548 -1.47741,1.87843 0.64289,1.41101 0.90789,3.24563 0.58889,4.07695 -1.09194,2.84554 -9.1167,5.81102 -13.18291,4.87162 z m -5.5575,-81.50557 c -0.0316,-0.6875 -2.98254,-3.5 -6.55759,-6.25 -3.57504,-2.75 -8.52991,-7.1375 -11.01082,-9.75 -3.34032,-3.51749 -5.25613,-4.75 -7.3834,-4.75 -1.57996,0 -3.15866,0.46277 -3.50823,1.02838 -1.1461,1.85443 0.63815,13.97162 2.05731,13.97162 0.71873,0 2.70983,1.18059 4.42467,2.62353 3.01713,2.53875 5.48108,3.05334 20.28556,4.2366 0.9625,0.0769 1.72412,-0.42263 1.6925,-1.11013 z m 68.40847,-1.7161 c 2.28197,-0.97037 5.0056,-2.06235 6.05253,-2.42662 1.76791,-0.61514 1.78289,-0.75051 0.21029,-1.90042 -1.48465,-1.0856 -1.55387,-1.88782 -0.56199,-6.51281 1.4593,-6.80445 0.87162,-8.19405 -3.46536,-8.19405 -2.83804,0 -4.26524,0.84171 -7.773,4.58421 -2.36316,2.52132 -7.33794,7.07237 -11.05505,10.11346 -3.71712,3.04109 -6.75839,5.98171 -6.75839,6.53471 0,1.58444 18.56536,-0.16347 23.35097,-2.19848 z M 217.56898,119.65297 c 2.59422,-1.33291 6.26494,-3.7362 8.15717,-5.34065 l 3.44041,-2.91716 3.4817,2.36274 c 6.08186,4.12726 13.68336,5.78511 20.90029,4.55825 17.5689,-2.98668 26.34604,-18.14406 16.50689,-28.506007 -9.45602,-9.958445 -28.74138,-10.262013 -38.39896,-0.604432 l -4.0505,4.050494 -2.17377,-2.04215 c -8.98521,-8.441168 -28.1983,-6.910482 -37.11273,2.956731 -4.03385,4.464985 -4.9946,7.433034 -4.23624,13.087024 1.55177,11.56933 21.04755,18.78593 33.48574,12.39516 z m 0.25681,-8.02826 c -0.97116,-1.17018 -1.00569,-1.88473 -0.1414,-2.92614 1.17834,-1.41982 -1.01494,-3.85629 -8.40813,-9.340441 -4.04412,-2.999863 -1.40932,-2.886785 3.39441,0.145679 6.42478,4.055792 11.35548,9.083972 10.9569,11.173532 -0.45735,2.3976 -4.104,2.99306 -5.80178,0.94737 z m 15.013,-0.98434 c -0.86044,-1.03677 -0.89848,-1.98422 -0.13678,-3.40746 1.34758,-2.51798 14.31444,-14.259086 14.99552,-13.578002 0.28191,0.281911 -1.83291,2.635196 -4.69961,5.229522 -5.23478,4.73741 -6.50174,7.19202 -3.71218,7.19202 2.13296,0 1.85659,1.58988 -0.68856,3.96104 -2.58225,2.40574 -4.12785,2.56756 -5.75839,0.60288 z M 94.789482,325.82645 c 0.0071,-2.35989 3.829215,-7.52072 7.661118,-10.34435 2.10933,-1.55431 6.1707,-4.98143 9.02528,-7.61583 2.85458,-2.6344 5.63027,-4.78982 6.16821,-4.78982 0.53794,0 1.68988,-0.27314 2.55986,-0.60699 0.86999,-0.33384 1.58179,-0.15286 1.58179,0.40218 0,0.55504 -1.40026,1.49729 -3.11169,2.0939 -2.70764,0.94389 -3.02633,1.42487 -2.45427,3.70414 0.78906,3.14385 -1.51942,5.3268 -5.68404,5.37497 -2.01226,0.0233 -2.75,0.53549 -2.75,1.90936 0,2.56 -2.16175,4.15441 -4.72414,3.48433 -1.66513,-0.43545 -2.70177,0.32459 -4.83085,3.54185 -2.890198,4.36738 -3.447194,4.82807 -3.441268,2.84626 z m 39.256588,-19 c -0.5415,-0.6875 -1.2854,-2.50832 -1.65311,-4.04626 -0.54146,-2.26472 -0.10707,-3.35774 2.28519,-5.75 1.62456,-1.62456 2.6168,-2.95374 2.20498,-2.95374 -0.41182,0 -1.80564,1.125 -3.09739,2.5 -3.05949,3.25668 -4.36104,3.16901 -3.70751,-0.24974 0.28911,-1.51236 -0.11161,-4.27493 -0.89048,-6.13903 -1.67047,-3.99799 -0.54077,-6.11123 3.26695,-6.11123 1.64624,0 2.97066,0.96059 4.12755,2.99368 0.93692,1.64652 2.04099,2.99652 2.45349,3 0.4125,0.003 0.75,0.68132 0.75,1.50632 0,0.825 0.54,1.5 1.2,1.5 0.93333,0 0.93333,0.26667 0,1.2 -0.66,0.66 -1.2,3.495 -1.2,6.3 0,6.49183 -2.98717,9.74459 -5.73967,6.25 z M 42.267478,254.88944 c -0.309849,-0.80745 -0.08379,-2.72947 0.502357,-4.27115 3.952565,-10.39603 16.619274,-17.5004 24.08165,-13.50666 3.153838,1.68789 2.235266,3.38686 -2.815741,5.20794 -5.57381,2.00957 -11.716274,5.62394 -10.916617,6.4236 0.307419,0.30742 4.52067,-1.14598 9.36278,-3.22978 4.993323,-2.14887 10.535134,-3.82079 12.803837,-3.86283 3.771843,-0.0699 4.017416,0.10514 4.305341,3.06839 0.362473,3.7305 -2.436902,6.13272 -10.305341,8.84331 -6.986561,2.40679 -26.24104,3.3526 -27.018266,1.32718 z M 375.20094,241.59258 c -0.0466,-1.65887 -0.42224,-4.38787 -0.83466,-6.06443 -0.73868,-3.00284 -0.6522,-3.08706 5.79837,-5.64636 7.2768,-2.88712 7.28263,-2.88479 9.85474,3.93718 1.87252,4.96642 2.07765,4.74696 -7.73365,8.27361 l -7,2.51614 -0.0848,-3.01614 z m -272.9152,-12.37669 c -5.447087,-3.36464 -6.929549,-5.81958 -6.917278,-11.45496 0.0071,-3.28206 0.665217,-6.17346 1.793376,-7.87966 1.570081,-2.37455 2.099829,-2.57324 4.452992,-1.67016 1.469,0.56377 6.27091,1.16524 10.67091,1.33661 7.21198,0.28089 8.12721,0.5439 9.2914,2.67015 0.75177,1.373 1.10648,4.22344 0.84886,6.82133 -0.36125,3.64293 -1.1884,5.15847 -4.50268,8.25 -3.39358,3.16549 -4.76422,3.78664 -8.34886,3.78351 -2.42344,-0.002 -5.5935,-0.80969 -7.28872,-1.85682 z m -57.997767,-4.71484 c -4.419402,-2.30434 -6.409513,-4.35985 -9.608831,-9.9246 -3.571339,-6.21182 -3.770687,-8.71593 -0.643398,-8.08203 1.2375,0.25085 4.19969,0.72069 6.582644,1.04409 5.0782,0.68919 12.522851,4.2651 16.417356,7.88579 2.938103,2.73153 3.419274,4.58288 1.65075,6.3514 -0.798999,0.799 -3.264245,-0.64865 -9.025542,-5.3 -7.291598,-5.88683 -10.875208,-7.71319 -10.875208,-5.54246 0,0.47123 3.597232,3.50873 7.99385,6.75 4.396617,3.24127 7.996617,6.45571 8,7.14321 0.0088,1.78796 -6.846238,1.57535 -10.491621,-0.3254 z m 47.997771,-37.4246 c -1.1,-0.47269 -1.474304,-0.89106 -0.831787,-0.92971 0.642516,-0.0387 1.880016,-0.34343 2.75,-0.67728 1.037983,-0.39831 1.581787,-0.0545 1.581787,1 0,1.77842 -0.551399,1.87405 -3.5,0.60699 z m 58.749996,-19.7004 c -0.6875,-0.25645 -1.25,-1.13032 -1.25,-1.94195 0,-0.81163 0.46971,-1.18539 1.0438,-0.83058 0.5741,0.35481 1.70997,0.0922 2.52417,-0.58348 0.8142,-0.67573 1.78199,-0.92697 2.15064,-0.55831 0.97964,0.97964 -2.99719,4.46319 -4.46861,3.91432 z m 162.33014,-34.5496 c -0.72479,-1.7875 -1.57377,-5.95 -1.88664,-9.25 l -0.56883,-6 1.95273,2.37939 c 1.38695,1.68999 1.65514,2.73795 0.92565,3.61694 -0.63608,0.76643 -0.71995,2.71582 -0.22031,5.12061 0.60496,2.91168 1.2959,3.88306 2.76202,3.88306 1.52671,0 1.91157,-0.62032 1.75598,-2.83034 -0.16671,-2.36795 0.0375,-2.63384 1.25,-1.62755 1.75824,1.45921 1.89305,5.1141 0.24926,6.75789 -2.21052,2.21052 -4.84429,1.34246 -6.21986,-2.05 z M 122.78574,101.46261 c -1.99212,-0.87401 -4.90018,-1.31505 -6.75,-1.02373 -3.91112,0.61594 -4.21704,-0.4063 -0.62111,-2.075492 2.11749,-0.982913 3.15007,-0.935482 5.44254,0.25 3.75006,1.939232 9.28037,1.852982 13.22823,-0.206297 1.76019,-0.918146 4.94128,-1.571764 7.06909,-1.452483 3.95796,0.221875 7.63125,-1.92521 7.63125,-4.460566 0,-0.699838 -1.1937,-2.211396 -2.65266,-3.359017 -1.45897,-1.147622 -2.37916,-2.36009 -2.04487,-2.694375 0.99167,-0.991678 6.69753,5.315946 6.69753,7.403888 0,3.091407 -3.33108,5.249043 -9.11285,5.902659 -2.96293,0.334953 -6.6023,1.221063 -8.08749,1.969123 -3.45217,1.73881 -6.41684,1.66917 -10.79966,-0.25371 z m 11.87244,-16.136161 c -1.24387,-1.586056 -1.2085,-1.621426 0.37756,-0.377555 1.66575,1.306369 2.19548,2.127555 1.37244,2.127555 -0.20765,0 -0.99515,-0.7875 -1.75,-1.75 z M 348.82687,46.389757 c -1.35239,-0.278934 -4.60898,-1.354645 -7.23689,-2.390468 -3.61271,-1.423999 -5.4068,-1.644247 -7.35622,-0.903077 -4.10868,1.562115 -12.58275,1.102198 -17.04695,-0.925197 -4.73833,-2.15189 -8.28864,-6.626915 -9.06806,-11.429921 -0.74255,-4.575783 3.88546,-9.946452 9.90305,-11.492203 7.96851,-2.046889 10.76394,-2.37201 10.76394,-1.251897 0,0.5937 -1.0125,1.081965 -2.25,1.085032 -7.51345,0.01862 -15.75,5.221224 -15.75,9.948458 0,6.133256 6.5213,10.045965 16.74357,10.045965 3.23475,0 5.4529,-0.531809 6.25643,-1.5 1.67919,-2.023297 2.43575,-1.92316 8.72764,1.155174 4.53723,2.219864 6.6849,2.637028 13.09967,2.5445 8.21459,-0.118489 17.11252,-2.596519 22.11574,-6.159119 3.61278,-2.57253 5.05695,-2.584112 5.05695,-0.04056 0,1.1 0.36832,2 0.8185,2 2.69299,0 11.08421,-3.380822 13.31787,-5.365765 5.5065,-4.893371 4.50954,-9.576282 -2.71949,-12.774028 -3.71483,-1.643244 -5.24212,-1.800743 -9.66448,-0.996635 -2.88882,0.525268 -5.74792,0.658347 -6.35356,0.29573 -3.2523,-1.947253 -12.57449,-11.1593023 -11.29274,-11.1593023 1.91194,0 7.25674,3.9202673 9.86422,7.2351433 1.92795,2.450989 2.31067,2.526005 10.33351,2.025477 8.26761,-0.515797 8.35951,-0.495111 11.99984,2.701148 4.73849,4.160443 6.34521,9.549489 4.30381,14.435249 -2.07478,4.96564 -6.40076,6.877443 -16.60748,7.339425 -6.66916,0.301864 -9.68466,0.964012 -14,3.074145 -4.428,2.165223 -7.05927,2.720643 -13.5,2.849644 -4.4,0.08813 -9.10649,-0.06799 -10.45887,-0.346923 z M 330.28574,19.076449 c -0.33992,-0.55 -0.1222,-1 0.48382,-1 0.60603,0 3.22008,-1.962139 5.80902,-4.360309 5.09366,-4.7183317 9.02256,-7.1576241 9.98247,-6.1977106 0.33222,0.3322117 -0.47997,1.3632813 -1.80485,2.2912658 -1.32489,0.9279848 -4.77888,3.6176338 -7.67554,5.9769988 -5.74889,4.682529 -5.89147,4.751563 -6.79492,3.289755 z"
         id="path3008"
         inkscape:connector-curvature="0" />
      <path
         style="fill:#b7c810"
         d="m 3.7857437,346.22241 0,-6.85405 4.8800664,2.33551 c 12.4404969,5.95381 26.1516489,6.97422 38.6947299,2.87975 l 7.63659,-2.49284 3.144307,2.15372 c 4.171125,2.85705 8.644307,7.00667 8.644307,8.01904 0,0.4471 -14.175,0.81291 -31.5,0.81291 l -31.5000003,0 0,-6.85404 z m 373.9999963,6.41306 c 0,-0.24254 0.45,-0.7191 1,-1.05902 0.55,-0.33992 1,-0.14148 1,0.44098 0,0.58246 -0.45,1.05902 -1,1.05902 -0.55,0 -1,-0.19844 -1,-0.44098 z m 12.25,-0.27527 c 1.5125,-0.22913 3.9875,-0.22913 5.5,0 1.5125,0.22912 0.275,0.41659 -2.75,0.41659 -3.025,0 -4.2625,-0.18747 -2.75,-0.41659 z m -176.75,-15.02818 c -1.1,-0.25412 -2.83357,-1.20203 -3.85238,-2.10645 -3.79165,-3.36594 -4.64762,-6.69938 -4.64762,-18.09946 0,-11.92026 -0.38406,-10.94267 6.5,-16.54502 2.38452,-1.94055 2.62748,-2.44792 1.18426,-2.47304 -0.99866,-0.0174 -2.68616,0.43423 -3.75,1.00358 -1.69649,0.90794 -1.9354,0.69282 -1.94357,-1.75 -0.005,-1.53185 1.20914,-9.22846 2.69835,-17.10357 2.00978,-10.62789 2.40628,-14.50467 1.53834,-15.04108 -2.20511,-1.36284 -25.96168,-3.35213 -27.89517,-2.33584 -5.88911,3.09545 -15.88394,1.70207 -19.45886,-2.71277 -1.24411,-1.53641 -4.3239,-2.67019 -11.09321,-4.08379 -13.46549,-2.81193 -38.72191,-9.42557 -49.74758,-13.02688 -10.839531,-3.54052 -30.317886,-11.03593 -29.847859,-11.48567 0.320498,-0.30667 10.244844,2.62592 23.815303,7.0373 9.752956,3.17042 38.017646,10.10203 44.749996,10.97446 2.8875,0.37419 5.24448,0.30061 5.23774,-0.1635 -0.0199,-1.37025 -15.33073,-9.83731 -17.21248,-9.5187 -1.42123,0.24063 -1.11328,-0.94521 1.75,-6.73883 1.91111,-3.86697 3.47474,-7.73405 3.47474,-8.59352 0,-2.60194 -18.40426,-37.48157 -19.78024,-37.48738 -0.70413,-0.003 -8.35416,4.64084 -17.000047,10.3196 -15.99289,10.50437 -21.514004,12.95641 -22.629256,10.05011 -1.532872,-3.9946 -0.502193,-5.28559 8.659547,-10.84667 5.0875,-3.08806 9.925,-5.96162 10.75,-6.38568 0.825,-0.42406 5.641406,-2.88132 10.703126,-5.46058 l 9.20313,-4.68957 4.60334,2.75369 c 4.17349,2.49656 13.24706,13.266 29.9586,35.55792 3.41545,4.55596 2.96159,5.23914 -5.76729,8.68117 -4.7072,1.85617 -6.16643,3.00677 -7.75,6.11083 -1.073,2.10325 -1.95091,4.20916 -1.95091,4.67979 0,1.33864 6.70428,4.69971 16,8.02132 11.1521,3.98495 14.72844,4.67292 16.52797,3.17944 0.80042,-0.66429 2.54069,-0.92538 3.89776,-0.58478 1.34843,0.33844 2.70604,0.20381 3.01689,-0.29916 0.31086,-0.50298 -0.40483,-4.53877 -1.59041,-8.96842 -2.48642,-9.28989 -1.86467,-11.12442 3.77023,-11.12442 1.85766,0 3.37756,-0.38824 3.37756,-0.86276 0,-0.47452 -2.24897,-4.90423 -4.99772,-9.84379 -7.48167,-13.44476 -7.73281,-22.22892 -0.79084,-27.66182 1.68675,-1.32008 3.63566,-4.05479 4.3309,-6.07712 l 1.26409,-3.67698 -5.89969,-6.64616 c -25.04088,-28.20931 -24.44664,-70.26999 1.38289,-97.881835 11.12733,-11.895149 20.02231,-16.901562 42.45032,-23.892551 0.83685,-0.260853 0.26793,-1.82676 -1.75,-4.816768 -1.64447,-2.436647 -2.98995,-4.761756 -2.98995,-5.166911 0,-1.358794 8.13282,0.336916 10.08375,2.102484 2.73682,2.476793 3.63738,0.915002 1.52974,-2.65295 -1.30167,-2.203552 -1.49182,-3.364522 -0.70611,-4.311243 1.27486,-1.536105 0.44667,-2.611597 -2.01107,-2.611597 -2.14425,0 -8.35649,-6.35649 -10.26172,-10.5 -0.75869,-1.65 -1.65059,-4.4625 -1.98201,-6.25 -0.56512,-3.047942 -0.42523,-3.25 2.24998,-3.25 1.5689,0 3.41275,0.675 4.09744,1.5 0.68469,0.825 1.9961,1.5 2.91424,1.5 2.04868,0 9.29876,7.366158 11.43391,11.616983 0.8611,1.714341 2.45774,6.439341 3.54808,10.5 l 1.98245,7.383017 0.0607,-8.75 c 0.0693,-10.000893 1.15452,-11.052719 4.23004,-4.100002 1.9829,4.482681 2.02458,5.473114 0.62222,14.78661 -0.24888,1.652863 0.84892,2.20018 7.49264,3.73554 18.56414,4.290156 35.75351,15.56887 46.22129,30.327852 9.61571,13.557601 13.50352,25.645261 13.47969,41.909961 -0.029,19.78195 -5.95063,34.86779 -19.45097,49.55278 -5.18895,5.64428 -5.44239,6.15635 -4.33851,8.76586 0.64481,1.52427 3.00205,4.70306 5.23832,7.06398 3.98591,4.20809 4.06594,4.43528 4.06594,11.54184 0,6.91275 -0.24003,7.66388 -5.17071,16.18121 -2.84389,4.91257 -4.95483,9.28124 -4.69098,9.70816 0.26385,0.42691 1.97307,0.77621 3.79826,0.77621 5.74837,0 6.22632,1.82194 3.15907,12.04234 -1.48313,4.94192 -2.39734,9.4695 -2.03159,10.06129 0.40231,0.65095 2.04197,0.81766 4.15085,0.42203 2.52365,-0.47344 3.98178,-0.20515 5.28245,0.97194 1.6576,1.50011 2.40406,1.50068 9.64961,0.007 4.31917,-0.8902 8.28054,-2.04298 8.80304,-2.56174 2.58019,-2.56172 5.55,1.76359 5.55,8.08319 0,2.63651 -0.14894,2.71115 -4.44419,2.22701 -6.03604,-0.68035 -17.37418,1.5387 -18.4871,3.61822 -1.89221,3.53562 -17.12574,5.27217 -19.04252,2.17075 -0.65896,-1.06621 -3.69918,-1.1896 -15.17512,-0.61588 -7.89309,0.39461 -14.73816,1.09466 -15.21127,1.55568 -0.71571,0.69743 0.54503,5.83439 3.17028,12.91751 0.39757,1.07265 -0.10374,1.24343 -2.14566,0.73094 -3.71521,-0.93245 -3.48702,1.39409 0.35094,3.57806 3.60605,2.05199 4.77202,4.84464 6.25008,14.96966 1.34413,9.20757 0.42368,12.04853 -4.69437,14.48916 -6.60331,3.1489 -12.84868,-1.07443 -15.60095,-10.54987 -0.57793,-1.9897 -1.98011,-10.59263 -3.11596,-19.11763 -1.13585,-8.525 -2.4677,-15.9275 -2.95967,-16.45 -2.21314,-2.35049 -2.62902,1.43627 -1.20259,10.95 1.58491,10.57067 2.38354,48.75144 1.04777,50.09132 -0.41819,0.41947 -1.39389,-0.10376 -2.16824,-1.16275 -1.9054,-2.60579 -2.9281,-1.30548 -1.47741,1.87843 0.64289,1.41101 0.90789,3.24563 0.58889,4.07695 -1.09194,2.84554 -9.1167,5.81102 -13.18291,4.87162 z m -5.5575,-81.50557 c -0.0316,-0.6875 -2.98254,-3.5 -6.55759,-6.25 -3.57504,-2.75 -8.52991,-7.1375 -11.01082,-9.75 -3.34032,-3.51749 -5.25613,-4.75 -7.3834,-4.75 -1.57996,0 -3.15866,0.46277 -3.50823,1.02838 -1.1461,1.85443 0.63815,13.97162 2.05731,13.97162 0.71873,0 2.70983,1.18059 4.42467,2.62353 3.01713,2.53875 5.48108,3.05334 20.28556,4.2366 0.9625,0.0769 1.72412,-0.42263 1.6925,-1.11013 z m 68.40847,-1.7161 c 2.28197,-0.97037 5.0056,-2.06235 6.05253,-2.42662 1.76791,-0.61514 1.78289,-0.75051 0.21029,-1.90042 -1.48465,-1.0856 -1.55387,-1.88782 -0.56199,-6.51281 1.4593,-6.80445 0.87162,-8.19405 -3.46536,-8.19405 -2.83804,0 -4.26524,0.84171 -7.773,4.58421 -2.36316,2.52132 -7.33794,7.07237 -11.05505,10.11346 -3.71712,3.04109 -6.75839,5.98171 -6.75839,6.53471 0,1.58444 18.56536,-0.16347 23.35097,-2.19848 z M 217.56898,119.65297 c 2.59422,-1.33291 6.26494,-3.7362 8.15717,-5.34065 l 3.44041,-2.91716 3.4817,2.36274 c 6.08186,4.12726 13.68336,5.78511 20.90029,4.55825 17.5689,-2.98668 26.34604,-18.14406 16.50689,-28.506007 -9.45602,-9.958445 -28.74138,-10.262013 -38.39896,-0.604432 l -4.0505,4.050494 -2.17377,-2.04215 c -8.98521,-8.441168 -28.1983,-6.910482 -37.11273,2.956731 -4.03385,4.464985 -4.9946,7.433034 -4.23624,13.087024 1.55177,11.56933 21.04755,18.78593 33.48574,12.39516 z m 2.40713,-9.32652 c 0.425,-2.20684 2.20351,-2.15881 2.63295,0.0711 0.19702,1.02305 -0.31993,1.6789 -1.32332,1.6789 -1.02996,0 -1.52043,-0.6554 -1.30963,-1.75 z m 13.43463,-0.0477 c -0.27117,-0.43876 -0.0915,-1.44749 0.39934,-2.24164 0.67454,-1.09142 1.17421,-1.16206 2.04689,-0.28938 0.63498,0.63498 0.85216,1.64371 0.48262,2.24164 -0.78966,1.27769 -2.23008,1.42001 -2.92885,0.28938 z m -103.625,187.23196 c 0,-2.70827 1.99457,-5.43426 3.97617,-5.43426 1.04819,0 2.18391,-0.45 2.52383,-1 1.1639,-1.88324 3.26665,-1.00103 3.75953,1.57731 0.43098,2.25452 0.21457,2.50751 -1.72788,2.01999 -1.55269,-0.3897 -2.92132,0.18858 -4.55043,1.92269 -2.68011,2.85285 -3.98122,3.15164 -3.98122,0.91427 z M 42.267478,254.88944 c -0.309849,-0.80745 -0.08379,-2.72947 0.502357,-4.27115 3.952565,-10.39603 16.619274,-17.5004 24.08165,-13.50666 3.153838,1.68789 2.235266,3.38686 -2.815741,5.20794 -5.57381,2.00957 -11.716274,5.62394 -10.916617,6.4236 0.307419,0.30742 4.52067,-1.14598 9.36278,-3.22978 4.993323,-2.14887 10.535134,-3.82079 12.803837,-3.86283 3.771843,-0.0699 4.017416,0.10514 4.305341,3.06839 0.362473,3.7305 -2.436902,6.13272 -10.305341,8.84331 -6.986561,2.40679 -26.24104,3.3526 -27.018266,1.32718 z M 374.94426,238.50097 c -0.71757,-3.08644 -1.15929,-5.7496 -0.98159,-5.91814 0.17769,-0.16855 3.11393,-1.43611 6.52498,-2.81682 6.90613,-2.79542 6.95831,-2.77338 9.51819,4.01845 1.87169,4.96594 1.63171,5.26709 -6.2201,7.80533 -3.025,0.97788 -5.95828,1.94558 -6.5184,2.15043 -0.56012,0.20486 -1.60551,-2.15281 -2.32308,-5.23925 z m -272.65852,-9.28508 c -5.447087,-3.36464 -6.929549,-5.81958 -6.917278,-11.45496 0.01329,-6.10403 2.79159,-11.44865 4.999018,-9.61664 0.73085,0.60654 5.51143,1.27024 10.62353,1.47489 8.45086,0.3383 9.41198,0.58023 10.58613,2.66468 0.75597,1.34204 1.10792,4.14293 0.84886,6.75534 -0.36125,3.64293 -1.1884,5.15847 -4.50268,8.25 -3.39358,3.16549 -4.76422,3.78664 -8.34886,3.78351 -2.42344,-0.002 -5.5935,-0.80969 -7.28872,-1.85682 z m -57.997767,-4.71484 c -4.419402,-2.30434 -6.409513,-4.35985 -9.608831,-9.9246 -3.571339,-6.21182 -3.770687,-8.71593 -0.643398,-8.08203 1.2375,0.25085 4.19969,0.72069 6.582644,1.04409 5.0782,0.68919 12.522851,4.2651 16.417356,7.88579 2.938103,2.73153 3.419274,4.58288 1.65075,6.3514 -0.798999,0.799 -3.264245,-0.64865 -9.025542,-5.3 -7.291598,-5.88683 -10.875208,-7.71319 -10.875208,-5.54246 0,0.47123 3.597232,3.50873 7.99385,6.75 4.396617,3.24127 7.996617,6.45571 8,7.14321 0.0088,1.78796 -6.846238,1.57535 -10.491621,-0.3254 z m 47.997771,-37.4246 c -1.1,-0.47269 -1.474304,-0.89106 -0.831787,-0.92971 0.642516,-0.0387 1.880016,-0.34343 2.75,-0.67728 1.037983,-0.39831 1.581787,-0.0545 1.581787,1 0,1.77842 -0.551399,1.87405 -3.5,0.60699 z"
         id="path3006"
         inkscape:connector-curvature="0" />
      <path
         style="fill:#9cac1a"
         d="m 3.7857437,346.22241 0,-6.85405 4.8800664,2.33551 c 12.4408689,5.95399 26.1515969,6.97424 38.6956419,2.87945 4.200625,-1.37122 8.065875,-2.22838 8.589442,-1.9048 1.079752,0.66732 0.14313,5.93143 -1.532852,8.61511 -1.019481,1.63244 -3.201766,1.78282 -25.872845,1.78282 l -24.7594533,0 0,-6.85404 z m 373.9999963,6.41306 c 0,-0.24254 0.45,-0.7191 1,-1.05902 0.55,-0.33992 1,-0.14148 1,0.44098 0,0.58246 -0.45,1.05902 -1,1.05902 -0.55,0 -1,-0.19844 -1,-0.44098 z m 12.25,-0.27527 c 1.5125,-0.22913 3.9875,-0.22913 5.5,0 1.5125,0.22912 0.275,0.41659 -2.75,0.41659 -3.025,0 -4.2625,-0.18747 -2.75,-0.41659 z m -176.75,-15.02818 c -1.1,-0.25412 -2.83357,-1.20203 -3.85238,-2.10645 -3.79165,-3.36594 -4.64762,-6.69938 -4.64762,-18.09946 0,-11.92026 -0.38406,-10.94267 6.5,-16.54502 2.38452,-1.94055 2.62748,-2.44792 1.18426,-2.47304 -0.99866,-0.0174 -2.68616,0.43423 -3.75,1.00358 -1.69649,0.90794 -1.9354,0.69282 -1.94357,-1.75 -0.005,-1.53185 1.20914,-9.22846 2.69835,-17.10357 2.00978,-10.62789 2.40628,-14.50467 1.53834,-15.04108 -2.20511,-1.36284 -25.96168,-3.35213 -27.89517,-2.33584 -5.88911,3.09545 -15.88394,1.70207 -19.45886,-2.71277 -1.24411,-1.53641 -4.3239,-2.67019 -11.09321,-4.08379 -13.46549,-2.81193 -38.72191,-9.42557 -49.74758,-13.02688 -10.839531,-3.54052 -30.317886,-11.03593 -29.847859,-11.48567 0.320498,-0.30667 10.244844,2.62592 23.815303,7.0373 9.752956,3.17042 38.017646,10.10203 44.749996,10.97446 2.8875,0.37419 5.24448,0.30061 5.23774,-0.1635 -0.0199,-1.37025 -15.33073,-9.83731 -17.21248,-9.5187 -1.42123,0.24063 -1.11328,-0.94521 1.75,-6.73883 1.91111,-3.86697 3.47474,-7.73405 3.47474,-8.59352 0,-2.60194 -18.40426,-37.48157 -19.78024,-37.48738 -0.70413,-0.003 -8.35416,4.64084 -17.000047,10.3196 -15.99289,10.50437 -21.514004,12.95641 -22.629256,10.05011 -1.532872,-3.9946 -0.502193,-5.28559 8.659547,-10.84667 5.0875,-3.08806 9.925,-5.96162 10.75,-6.38568 0.825,-0.42406 5.641406,-2.88132 10.703126,-5.46058 l 9.20313,-4.68957 4.60334,2.75369 c 4.17349,2.49656 13.24706,13.266 29.9586,35.55792 3.41545,4.55596 2.96159,5.23914 -5.76729,8.68117 -4.7072,1.85617 -6.16643,3.00677 -7.75,6.11083 -1.073,2.10325 -1.95091,4.20916 -1.95091,4.67979 0,1.33864 6.70428,4.69971 16,8.02132 11.1521,3.98495 14.72844,4.67292 16.52797,3.17944 0.80042,-0.66429 2.54069,-0.92538 3.89776,-0.58478 1.34843,0.33844 2.70604,0.20381 3.01689,-0.29916 0.31086,-0.50298 -0.40483,-4.53877 -1.59041,-8.96842 -2.36277,-8.8279 -1.81669,-11.12442 2.64523,-11.12442 4.55598,0 8.50256,-1.26809 8.50256,-2.73199 0,-0.81509 0.5625,-1.23428 1.25,-0.93152 14.42182,6.35103 24.14107,8.30708 26.59349,5.35209 1.0778,-1.29867 0.94735,-1.73015 -0.80693,-2.66901 -2.99112,-1.6008 -1.57099,-3.01957 3.02246,-3.01957 2.64745,0 4.61794,-0.67696 6.00348,-2.0625 3.16014,-3.16014 1.97748,-4.48722 -3.65091,-4.09678 -5.5542,0.38529 -5.17294,-0.87643 0.84609,-2.8 4.26164,-1.36195 5.9153,-3.66324 5.03934,-7.01293 -0.44262,-1.69258 -0.23214,-2.1706 0.80134,-1.81986 1.07096,0.36346 1.36348,2.45318 1.2399,8.85763 -0.15315,7.93689 -0.31244,8.49885 -3,10.58351 -1.56104,1.21085 -3.21565,2.64528 -3.6769,3.1876 -4.62728,5.44067 -5.72842,6.16226 -9.36591,6.13751 -3.22783,-0.022 -12.30757,-2.67479 -18.54545,-5.41844 -2.24783,-0.98868 -2.33877,1.1362 -0.15204,3.55251 2.07268,2.29028 0.98184,4.27242 -1.59291,2.89445 -2.43299,-1.3021 -6.711,-1.2875 -7.52259,0.0257 -1.1461,1.85443 0.63815,13.97162 2.05731,13.97162 0.71873,0 2.68468,1.15942 4.36877,2.5765 2.56323,2.15681 4.56722,2.71769 12.30274,3.44332 5.08241,0.47675 9.47654,0.55483 9.76473,0.1735 0.77042,-1.01938 45.02341,-0.84679 45.02372,0.1756 4.5e-4,1.45089 18.8901,-0.43799 23.35124,-2.33502 2.28197,-0.97037 5.0056,-2.06235 6.05253,-2.42662 1.76791,-0.61514 1.78289,-0.75051 0.21029,-1.90042 -1.48465,-1.0856 -1.55387,-1.88782 -0.56199,-6.51281 0.62218,-2.90109 0.87917,-5.93156 0.5711,-6.73438 -0.65254,-1.70047 -5.83165,-1.9535 -8.68864,-0.42449 -2.46148,1.31735 -2.62601,-0.60256 -0.33226,-3.87734 2.35148,-3.3572 1.07892,-3.69884 -4.31354,-1.15804 -10.13079,4.77339 -21.73974,4.81451 -22.97748,0.0814 -0.27252,-1.0421 -2.29672,-3.34224 -4.49822,-5.11142 -3.59397,-2.88819 -3.95782,-3.58705 -3.56282,-6.84323 0.24196,-1.9946 0.003,-4.60586 -0.53192,-5.8028 -1.08545,-2.43066 -0.21621,-7.32377 1.30103,-7.32377 0.53952,0 0.98095,1.28026 0.98095,2.84501 0,3.26158 2.27641,5.69379 6.25945,6.68786 2.60698,0.65064 4.39531,2.14571 3.56261,2.9784 -0.20801,0.20802 -2.08281,-0.006 -4.16621,-0.47612 -2.95757,-0.66704 -3.90972,-0.53715 -4.34321,0.5925 -1.02867,2.68067 2.65003,5.37235 7.34235,5.37235 4.79538,0 5.15771,0.4445 2.63477,3.23231 -1.47893,1.6342 -1.51274,2.02378 -0.25,2.88051 2.44365,1.65794 12.71754,0.0745 19.78332,-3.04911 5.20716,-2.30193 6.7463,-2.64312 6.9921,-1.54997 0.2044,0.90901 2.39532,1.63704 6.23318,2.07124 8.44039,0.95492 8.77427,1.70469 5.54728,12.45736 -1.48313,4.94192 -2.39734,9.4695 -2.03159,10.06129 0.40231,0.65095 2.04197,0.81766 4.15085,0.42203 2.52365,-0.47344 3.98178,-0.20515 5.28245,0.97194 1.6576,1.50011 2.40406,1.50068 9.64961,0.007 4.31917,-0.8902 8.28054,-2.04298 8.80304,-2.56174 2.58019,-2.56172 5.55,1.76359 5.55,8.08319 0,2.63651 -0.14894,2.71115 -4.44419,2.22701 -6.03604,-0.68035 -17.37418,1.5387 -18.4871,3.61822 -1.89221,3.53562 -17.12574,5.27217 -19.04252,2.17075 -0.65896,-1.06621 -3.69918,-1.1896 -15.17512,-0.61588 -7.89309,0.39461 -14.73816,1.09466 -15.21127,1.55568 -0.71571,0.69743 0.54503,5.83439 3.17028,12.91751 0.39757,1.07265 -0.10374,1.24343 -2.14566,0.73094 -3.71521,-0.93245 -3.48702,1.39409 0.35094,3.57806 3.60605,2.05199 4.77202,4.84464 6.25008,14.96966 1.34413,9.20757 0.42368,12.04853 -4.69437,14.48916 -6.60331,3.1489 -12.84868,-1.07443 -15.60095,-10.54987 -0.57793,-1.9897 -1.98011,-10.59263 -3.11596,-19.11763 -1.13585,-8.525 -2.4677,-15.9275 -2.95967,-16.45 -2.21314,-2.35049 -2.62902,1.43627 -1.20259,10.95 1.58491,10.57067 2.38354,48.75144 1.04777,50.09132 -0.41819,0.41947 -1.39389,-0.10376 -2.16824,-1.16275 -1.9054,-2.60579 -2.9281,-1.30548 -1.47741,1.87843 0.64289,1.41101 0.90789,3.24563 0.58889,4.07695 -1.09194,2.84554 -9.1167,5.81102 -13.18291,4.87162 z m -83.5,-39.82131 c 0,-2.70827 1.99457,-5.43426 3.97617,-5.43426 1.04819,0 2.18391,-0.45 2.52383,-1 1.1639,-1.88324 3.26665,-1.00103 3.75953,1.57731 0.43098,2.25452 0.21457,2.50751 -1.72788,2.01999 -1.55269,-0.3897 -2.92132,0.18858 -4.55043,1.92269 -2.68011,2.85285 -3.98122,3.15164 -3.98122,0.91427 z M 42.267478,254.88944 c -0.309849,-0.80745 -0.08379,-2.72947 0.502357,-4.27115 3.952565,-10.39603 16.619274,-17.5004 24.08165,-13.50666 3.153838,1.68789 2.235266,3.38686 -2.815741,5.20794 -5.57381,2.00957 -11.716274,5.62394 -10.916617,6.4236 0.307419,0.30742 4.52067,-1.14598 9.36278,-3.22978 4.993323,-2.14887 10.535134,-3.82079 12.803837,-3.86283 3.771843,-0.0699 4.017416,0.10514 4.305341,3.06839 0.362473,3.7305 -2.436902,6.13272 -10.305341,8.84331 -6.986561,2.40679 -26.24104,3.3526 -27.018266,1.32718 z M 374.94426,238.50097 c -0.71757,-3.08644 -1.15929,-5.7496 -0.98159,-5.91814 0.17769,-0.16855 3.11393,-1.43611 6.52498,-2.81682 6.90613,-2.79542 6.95831,-2.77338 9.51819,4.01845 1.87169,4.96594 1.63171,5.26709 -6.2201,7.80533 -3.025,0.97788 -5.95828,1.94558 -6.5184,2.15043 -0.56012,0.20486 -1.60551,-2.15281 -2.32308,-5.23925 z m -272.65852,-9.28508 c -5.447087,-3.36464 -6.929549,-5.81958 -6.917278,-11.45496 0.01329,-6.10403 2.79159,-11.44865 4.999018,-9.61664 0.73085,0.60654 5.51143,1.27024 10.62353,1.47489 8.45086,0.3383 9.41198,0.58023 10.58613,2.66468 0.75597,1.34204 1.10792,4.14293 0.84886,6.75534 -0.36125,3.64293 -1.1884,5.15847 -4.50268,8.25 -3.39358,3.16549 -4.76422,3.78664 -8.34886,3.78351 -2.42344,-0.002 -5.5935,-0.80969 -7.28872,-1.85682 z m -57.997767,-4.71484 c -4.419402,-2.30434 -6.409513,-4.35985 -9.608831,-9.9246 -3.571339,-6.21182 -3.770687,-8.71593 -0.643398,-8.08203 1.2375,0.25085 4.19969,0.72069 6.582644,1.04409 5.0782,0.68919 12.522851,4.2651 16.417356,7.88579 2.938103,2.73153 3.419274,4.58288 1.65075,6.3514 -0.798999,0.799 -3.264245,-0.64865 -9.025542,-5.3 -7.291598,-5.88683 -10.875208,-7.71319 -10.875208,-5.54246 0,0.47123 3.597232,3.50873 7.99385,6.75 4.396617,3.24127 7.996617,6.45571 8,7.14321 0.0088,1.78796 -6.846238,1.57535 -10.491621,-0.3254 z M 215.39468,204.65314 c 0.68138,-1.77564 -2.51723,-3.57669 -6.35207,-3.57669 -1.58104,0 -3.74812,-0.66069 -4.81574,-1.4682 -1.06762,-0.8075 -3.35188,-1.4825 -5.07612,-1.5 -2.21899,-0.0225 -3.61361,-0.76226 -4.77305,-2.5318 -1.33744,-2.04118 -2.44751,-2.5 -6.04859,-2.5 -4.06811,0 -4.43509,-0.2135 -4.72695,-2.75 -0.23006,-1.99942 -1.21231,-3.14423 -3.59882,-4.19439 -2.33889,-1.02921 -3.09512,-1.89153 -2.63089,-3 0.35833,-0.85558 0.67291,-2.11811 0.69907,-2.80561 0.0721,-1.89435 0.82269,-1.58464 6.50219,2.68286 6.96622,5.23432 16.26215,9.52671 26.0364,12.0223 14.55421,3.71602 39.54129,2.06517 49.87597,-3.29521 1.76019,-0.91297 3.94523,-1.65995 4.85564,-1.65995 0.91042,0 2.99229,-1.125 4.62639,-2.5 1.63409,-1.375 3.83655,-2.5 4.89436,-2.5 1.56321,0 1.92327,0.71764 1.92327,3.83333 0,2.10834 -0.28216,4.11549 -0.62702,4.46035 -0.34485,0.34486 -2.21395,-0.036 -4.15354,-0.84646 -1.93958,-0.81041 -3.6252,-1.35507 -3.7458,-1.21035 -0.12061,0.14472 -0.98566,1.76931 -1.92233,3.61019 -1.55733,3.06066 -1.99278,3.2927 -5.08903,2.71184 -2.63429,-0.49419 -3.83843,-0.18275 -5.42412,1.40294 -1.12099,1.12099 -3.27566,2.04505 -4.78816,2.05347 -3.75163,0.0209 -5.68597,1.40618 -4.88352,3.49734 0.57555,1.49985 0.18689,1.62709 -3.10428,1.01632 -2.06921,-0.38401 -4.52008,-1.37806 -5.44638,-2.209 -1.50709,-1.35195 -2.00227,-1.32291 -4.70947,0.27628 -2.83492,1.67463 -3.14201,1.68146 -4.88008,0.10852 -1.74031,-1.57496 -2.09533,-1.55593 -5.75197,0.30833 -4.63228,2.36167 -7.65042,2.60944 -6.86536,0.56359 z m -35.22107,-2.15759 c -3.52841,-1.74073 -5.78591,-5.25226 -5.16728,-8.03766 0.32367,-1.45733 0.77766,-1.05426 2.01398,1.78807 2.03394,4.67607 4.24128,5.81366 11.44969,5.90078 4.17393,0.0504 5.25113,0.3129 3.81574,0.92971 -3.16154,1.35856 -8.72139,1.09191 -12.11213,-0.5809 z m 87.61213,0.5809 c -1.78877,-0.57286 -0.48152,-0.829 4.59501,-0.90032 7.64312,-0.10738 9.64608,-1.26475 11.95205,-6.90629 1.33819,-3.27386 2.62296,-0.85774 1.3561,2.55029 -1.85315,4.98524 -10.66826,7.57334 -17.90316,5.25632 z M 93.479597,187.43697 c -0.798931,-0.79893 0.104186,-2.36052 1.365164,-2.36052 0.517541,0 0.940983,0.675 0.940983,1.5 0,1.54641 -1.179963,1.9867 -2.306147,0.86052 z m 184.746833,-3.45648 c -0.37254,-0.60278 0.0784,-1.84028 1.0021,-2.75 1.56323,-1.53958 1.77902,-1.51972 3.11833,0.28709 0.79138,1.06762 1.43888,2.30512 1.43888,2.75 0,1.21848 -4.78141,0.97157 -5.55931,-0.28709 z m -58.94069,-65.07443 c 1.1,-0.61027 2.7875,-1.79133 3.75,-2.62458 0.9625,-0.83325 1.75,-1.09228 1.75,-0.57563 0,0.99184 -5.21308,4.39201 -6.65429,4.34019 -0.46514,-0.0167 0.0543,-0.52972 1.15429,-1.13998 z m 0.69037,-8.57961 c 0.425,-2.20684 2.20351,-2.15881 2.63295,0.0711 0.19702,1.02305 -0.31993,1.6789 -1.32332,1.6789 -1.02996,0 -1.52043,-0.6554 -1.30963,-1.75 z m 13.43463,-0.0477 c -0.27117,-0.43876 -0.0915,-1.44749 0.39934,-2.24164 0.67454,-1.09142 1.17421,-1.16206 2.04689,-0.28938 0.63498,0.63498 0.85216,1.64371 0.48262,2.24164 -0.78966,1.27769 -2.23008,1.42001 -2.92885,0.28938 z M 216.64101,49.340585 c -1.96065,-2.3366 -4.85527,-7.022953 -4.85527,-7.860622 0,-1.306404 8.18921,0.457744 10.08375,2.172276 2.73682,2.476793 3.63738,0.915002 1.52974,-2.65295 -1.30167,-2.203552 -1.49182,-3.364522 -0.70611,-4.311243 1.27486,-1.536105 0.44667,-2.611597 -2.01107,-2.611597 -2.14425,0 -8.35649,-6.35649 -10.26172,-10.5 -0.75869,-1.65 -1.65059,-4.4625 -1.98201,-6.25 -0.56512,-3.047942 -0.42523,-3.25 2.24998,-3.25 1.5689,0 3.41275,0.675 4.09744,1.5 0.68469,0.825 1.9961,1.5 2.91424,1.5 2.04868,0 9.29876,7.366158 11.43391,11.616983 0.8611,1.714341 2.45774,6.439341 3.54808,10.5 l 1.98245,7.383017 0.0607,-8.75 c 0.0683,-9.846293 1.13017,-11.01534 4.08759,-4.5 2.1668,4.773566 2.46649,9.03612 0.94265,13.407425 -1.02685,2.945623 -1.0597,2.956279 -9.47444,3.073722 -4.64421,0.06482 -9.28002,0.383188 -10.3018,0.707488 -1.13038,0.358771 -2.43737,-0.101093 -3.33807,-1.174499 z"
         id="path3004"
         inkscape:connector-curvature="0" />
      <path
         style="fill:#d66121"
         d="m 3.7857437,348.65978 c 0,-2.64372 0.5017761,-4.58446 1.25,-4.83468 0.6875,-0.22991 4.4,0.41157 8.2500003,1.4255 10.829909,2.85216 20.847245,3.33043 28.5,1.36071 12.424288,-3.19785 12.054906,-3.2131 11.003118,0.45427 -1.763605,6.14933 -1.161803,6.01087 -26.125563,6.01087 l -22.8775553,0 0,-4.41667 z m 373.9999963,3.97569 c 0,-0.24254 0.45,-0.7191 1,-1.05902 0.55,-0.33992 1,-0.14148 1,0.44098 0,0.58246 -0.45,1.05902 -1,1.05902 -0.55,0 -1,-0.19844 -1,-0.44098 z m 12.25,-0.27527 c 1.5125,-0.22913 3.9875,-0.22913 5.5,0 1.5125,0.22912 0.275,0.41659 -2.75,0.41659 -3.025,0 -4.2625,-0.18747 -2.75,-0.41659 z m -176.75,-15.02818 c -1.1,-0.25412 -2.83357,-1.20203 -3.85238,-2.10645 -3.79165,-3.36594 -4.64762,-6.69938 -4.64762,-18.09946 0,-11.92026 -0.38406,-10.94267 6.5,-16.54502 2.38452,-1.94055 2.62748,-2.44792 1.18426,-2.47304 -0.99866,-0.0174 -2.68616,0.43423 -3.75,1.00358 -1.69649,0.90794 -1.9354,0.69282 -1.94357,-1.75 -0.005,-1.53185 1.20914,-9.22846 2.69835,-17.10357 2.00978,-10.62789 2.40628,-14.50467 1.53834,-15.04108 -2.20511,-1.36284 -25.96168,-3.35213 -27.89517,-2.33584 -5.88911,3.09545 -15.88394,1.70207 -19.45886,-2.71277 -1.24411,-1.53641 -4.3239,-2.67019 -11.09321,-4.08379 -13.46549,-2.81193 -38.72191,-9.42557 -49.74758,-13.02688 -10.839531,-3.54052 -30.317886,-11.03593 -29.847859,-11.48567 0.320498,-0.30667 10.244844,2.62592 23.815303,7.0373 9.752956,3.17042 38.017646,10.10203 44.749996,10.97446 2.8875,0.37419 5.24448,0.30061 5.23774,-0.1635 -0.0199,-1.37025 -15.33073,-9.83731 -17.21248,-9.5187 -1.42123,0.24063 -1.11328,-0.94521 1.75,-6.73883 1.91111,-3.86697 3.47474,-7.73405 3.47474,-8.59352 0,-2.60194 -18.40426,-37.48157 -19.78024,-37.48738 -0.70413,-0.003 -8.35416,4.64084 -17.000047,10.3196 -15.99289,10.50437 -21.514004,12.95641 -22.629256,10.05011 -1.532872,-3.9946 -0.502193,-5.28559 8.659547,-10.84667 5.0875,-3.08806 9.925,-5.96162 10.75,-6.38568 0.825,-0.42406 5.641406,-2.88132 10.703126,-5.46058 l 9.20313,-4.68957 4.60334,2.75369 c 4.17349,2.49656 13.24706,13.266 29.9586,35.55792 3.41545,4.55596 2.96159,5.23914 -5.76729,8.68117 -4.7072,1.85617 -6.16643,3.00677 -7.75,6.11083 -1.073,2.10325 -1.95091,4.20916 -1.95091,4.67979 0,1.33864 6.70428,4.69971 16,8.02132 11.1521,3.98495 14.72844,4.67292 16.52797,3.17944 0.80042,-0.66429 2.54069,-0.92538 3.89776,-0.58478 1.34843,0.33844 2.70604,0.20381 3.01689,-0.29916 0.31086,-0.50298 -0.41412,-4.5735 -1.61107,-9.0456 -2.68252,-10.02257 -2.18537,-10.80842 7.11368,-11.24479 5.8974,-0.27674 6.54629,-0.10405 7.63418,2.03173 0.65393,1.28381 1.69108,2.83631 2.30477,3.45 2.15804,2.15804 1.06839,2.77841 -3.75605,2.13843 -3.21542,-0.42654 -5.11146,-0.2586 -5.57655,0.49393 -1.19586,1.93494 0.51918,14.08346 1.98819,14.08346 0.71873,0 2.68468,1.15942 4.36877,2.5765 4.30731,3.62436 14.1867,4.36478 53.51077,4.0104 29.63926,-0.2671 32.42315,-0.44238 36.58069,-2.3032 2.475,-1.10776 5.35657,-2.31215 6.4035,-2.67642 1.76791,-0.61514 1.78289,-0.75051 0.21029,-1.90042 -1.48465,-1.0856 -1.55387,-1.88782 -0.56199,-6.51281 1.63045,-7.60253 0.99066,-8.5961 -5.07291,-7.87796 -2.73839,0.32433 -4.97889,0.39974 -4.97889,0.16759 0,-0.23215 0.96891,-2.28099 2.15314,-4.55298 l 2.15314,-4.13089 6.59686,0.68273 c 9.68482,1.00232 9.99046,1.57063 6.71482,12.48543 -1.4954,4.98282 -2.41966,9.54387 -2.05391,10.13566 0.40231,0.65095 2.04197,0.81766 4.15085,0.42203 2.52365,-0.47344 3.98178,-0.20515 5.28245,0.97194 1.6576,1.50011 2.40406,1.50068 9.64961,0.007 4.31917,-0.8902 8.28054,-2.04298 8.80304,-2.56174 2.58019,-2.56172 5.55,1.76359 5.55,8.08319 0,2.63651 -0.14894,2.71115 -4.44419,2.22701 -6.03604,-0.68035 -17.37418,1.5387 -18.4871,3.61822 -1.89221,3.53562 -17.12574,5.27217 -19.04252,2.17075 -0.65896,-1.06621 -3.69918,-1.1896 -15.17512,-0.61588 -7.89309,0.39461 -14.73816,1.09466 -15.21127,1.55568 -0.71571,0.69743 0.54503,5.83439 3.17028,12.91751 0.39757,1.07265 -0.10374,1.24343 -2.14566,0.73094 -3.71521,-0.93245 -3.48702,1.39409 0.35094,3.57806 3.60605,2.05199 4.77202,4.84464 6.25008,14.96966 1.34413,9.20757 0.42368,12.04853 -4.69437,14.48916 -6.60331,3.1489 -12.84868,-1.07443 -15.60095,-10.54987 -0.57793,-1.9897 -1.98011,-10.59263 -3.11596,-19.11763 -1.13585,-8.525 -2.4677,-15.9275 -2.95967,-16.45 -2.21314,-2.35049 -2.62902,1.43627 -1.20259,10.95 1.58491,10.57067 2.38354,48.75144 1.04777,50.09132 -0.41819,0.41947 -1.39389,-0.10376 -2.16824,-1.16275 -1.9054,-2.60579 -2.9281,-1.30548 -1.47741,1.87843 0.64289,1.41101 0.90789,3.24563 0.58889,4.07695 -1.09194,2.84554 -9.1167,5.81102 -13.18291,4.87162 z m -83.5,-39.82131 c 0,-2.70827 1.99457,-5.43426 3.97617,-5.43426 1.04819,0 2.18391,-0.45 2.52383,-1 1.1639,-1.88324 3.26665,-1.00103 3.75953,1.57731 0.43098,2.25452 0.21457,2.50751 -1.72788,2.01999 -1.55269,-0.3897 -2.92132,0.18858 -4.55043,1.92269 -2.68011,2.85285 -3.98122,3.15164 -3.98122,0.91427 z m 245.15852,-59.00974 c -0.71757,-3.08644 -1.15929,-5.7496 -0.98159,-5.91814 0.17769,-0.16855 3.11393,-1.43611 6.52498,-2.81682 6.90613,-2.79542 6.95831,-2.77338 9.51819,4.01845 1.87169,4.96594 1.63171,5.26709 -6.2201,7.80533 -3.025,0.97788 -5.95828,1.94558 -6.5184,2.15043 -0.56012,0.20486 -1.60551,-2.15281 -2.32308,-5.23925 z m -167.57123,-6.3673 c 4.38153,-1.04747 5.57105,-1.98298 4.96188,-3.90231 -0.40587,-1.27876 0.59331,-2.07789 4.20932,-3.36659 l 4.74151,-1.68981 -3.14913,2.70075 c -1.73202,1.4854 -3.66036,3.71324 -4.28519,4.95074 -0.92313,1.82831 -1.92597,2.23082 -5.35086,2.14764 -4.0061,-0.0973 -4.06194,-0.13891 -1.12753,-0.84042 z m 40.61271,-0.25722 c -0.66,-0.66 -1.2,-1.7483 -1.2,-2.41844 0,-0.67014 -1.575,-2.19184 -3.5,-3.38156 -4.96079,-3.06594 -4.3433,-4.10274 0.95432,-1.60236 2.52277,1.1907 4.47413,2.80813 4.5,3.72992 0.0675,2.40501 2.08204,3.67357 6.55836,4.12982 3.71798,0.37896 3.6462,0.41777 -1.06268,0.57452 -2.81816,0.0938 -5.58034,-0.36224 -6.25,-1.0319 z m -145.7,-2.66056 c -5.447087,-3.36464 -6.929549,-5.81958 -6.917278,-11.45496 0.01329,-6.10403 2.79159,-11.44865 4.999018,-9.61664 0.73085,0.60654 5.51143,1.27024 10.62353,1.47489 8.45086,0.3383 9.41198,0.58023 10.58613,2.66468 0.75597,1.34204 1.10792,4.14293 0.84886,6.75534 -0.36125,3.64293 -1.1884,5.15847 -4.50268,8.25 -3.39358,3.16549 -4.76422,3.78664 -8.34886,3.78351 -2.42344,-0.002 -5.5935,-0.80969 -7.28872,-1.85682 z m 125.7901,-26.6488 c -1.75939,-1.23233 -2.63977,-1.28844 -4.7966,-0.30572 -2.06391,0.94038 -3.06769,0.93758 -4.58946,-0.0128 -1.07127,-0.66902 -4.07543,-1.49071 -6.6759,-1.82597 -2.60048,-0.33526 -5.66193,-1.45479 -6.80322,-2.48785 -1.49905,-1.3569 -2.91824,-1.70967 -5.11248,-1.27082 -2.57847,0.5157 -3.36042,0.15386 -5.17523,-2.39482 -1.89961,-2.66775 -2.56899,-2.94446 -6.00726,-2.48329 -3.75586,0.50376 -3.88445,0.42025 -4.38116,-2.8452 -0.28146,-1.85031 -0.38189,-3.50988 -0.22319,-3.68794 0.50348,-0.56489 6.06671,2.62758 7.41968,4.2578 0.71478,0.86127 2.04936,1.56594 2.96572,1.56594 0.91637,0 3.43141,0.9 5.589,2 2.15759,1.1 4.71201,2 5.67649,2 0.96449,0 3.81645,0.70035 6.33768,1.55633 4.70334,1.59683 33.48776,2.68081 33.48646,1.26106 -6.8e-4,-0.73327 1.6126,-1.28833 6.74937,-2.32219 2.54601,-0.51242 3.25,-0.3196 3.25,0.89016 0,2.00323 -2.51724,3.18522 -7.5,3.52168 -2.2,0.14855 -4.82197,1.00618 -5.8266,1.90584 -1.69082,1.51415 -2.0384,1.51419 -4.6757,5.9e-4 -2.68419,-1.54052 -2.94918,-1.52456 -4.57838,0.27568 -2.08419,2.303 -2.38124,2.32625 -5.12922,0.40149 z m 32.21059,-6.86648 c -1.78081,-1.30216 -1.70575,-1.46676 1.4018,-3.07373 3.89894,-2.01622 4.83386,-1.46196 3.28139,1.94534 -1.30699,2.86852 -2.05646,3.0491 -4.68319,1.12839 z m 11.0834,-4.93901 c -1.69489,-1.23934 -1.65502,-1.40865 0.69425,-2.94796 2.83967,-1.86062 3.72166,-1.40335 3.72166,1.92948 0,2.60535 -1.70724,2.99911 -4.41591,1.01848 z M 93.479597,187.43697 c -0.798931,-0.79893 0.104186,-2.36052 1.365164,-2.36052 0.517541,0 0.940983,0.675 0.940983,1.5 0,1.54641 -1.179963,1.9867 -2.306147,0.86052 z m 84.651223,-3.90365 c -0.32569,-0.84872 -0.28998,-1.8453 0.0794,-2.21463 0.81901,-0.81901 3.80734,0.95308 4.34938,2.5792 0.59254,1.77761 -3.74368,1.42066 -4.42873,-0.36457 z m 101.82159,-0.45687 c 0.50335,-1.51005 2.11144,-1.66567 2.58333,-0.25 0.22917,0.6875 -0.33333,1.25 -1.25,1.25 -0.91667,0 -1.51667,-0.45 -1.33333,-1 z m -59.9763,-72.75 c 0.425,-2.20684 2.20351,-2.15881 2.63295,0.0711 0.19702,1.02305 -0.31993,1.6789 -1.32332,1.6789 -1.02996,0 -1.52043,-0.6554 -1.30963,-1.75 z m 13.43463,-0.0477 c -0.27117,-0.43876 -0.0915,-1.44749 0.39934,-2.24164 0.67454,-1.09142 1.17421,-1.16206 2.04689,-0.28938 0.63498,0.63498 0.85216,1.64371 0.48262,2.24164 -0.78966,1.27769 -2.23008,1.42001 -2.92885,0.28938 z M 216.61358,49.310275 c -1.94026,-2.315474 -4.82784,-6.998868 -4.82784,-7.830312 0,-1.306404 8.18921,0.457744 10.08375,2.172276 2.73682,2.476793 3.63738,0.915002 1.52974,-2.65295 -1.30167,-2.203552 -1.49182,-3.364522 -0.70611,-4.311243 1.27486,-1.536105 0.44667,-2.611597 -2.01107,-2.611597 -2.14425,0 -8.35649,-6.35649 -10.26172,-10.5 -0.75869,-1.65 -1.65059,-4.4625 -1.98201,-6.25 -0.56512,-3.047942 -0.42523,-3.25 2.24998,-3.25 1.5689,0 3.41275,0.675 4.09744,1.5 0.68469,0.825 1.9961,1.5 2.91424,1.5 2.04868,0 9.29876,7.366158 11.43391,11.616983 0.8611,1.714341 2.45774,6.439341 3.54808,10.5 l 1.98245,7.383017 0.0607,-8.75 c 0.0683,-9.846293 1.13017,-11.01534 4.08759,-4.5 2.15868,4.755677 2.46694,9.036114 0.96148,13.350777 -0.99554,2.853194 -1.13656,2.901004 -8.88277,3.011391 -4.32914,0.06169 -8.98577,0.391914 -10.34805,0.733826 -1.70074,0.426858 -2.93215,0.07835 -3.92975,-1.112168 z"
         id="path3002"
         inkscape:connector-curvature="0" />
      <path
         style="fill:#72961c"
         d="m 3.7857437,348.65978 c 0,-2.64372 0.5017761,-4.58446 1.25,-4.83468 0.6875,-0.22991 4.4,0.41157 8.2500003,1.4255 10.829909,2.85216 20.847245,3.33043 28.5,1.36071 12.424288,-3.19785 12.054906,-3.2131 11.003118,0.45427 -1.763605,6.14933 -1.161803,6.01087 -26.125563,6.01087 l -22.8775553,0 0,-4.41667 z m 373.9999963,3.97569 c 0,-0.24254 0.45,-0.7191 1,-1.05902 0.55,-0.33992 1,-0.14148 1,0.44098 0,0.58246 -0.45,1.05902 -1,1.05902 -0.55,0 -1,-0.19844 -1,-0.44098 z m 12.25,-0.27527 c 1.5125,-0.22913 3.9875,-0.22913 5.5,0 1.5125,0.22912 0.275,0.41659 -2.75,0.41659 -3.025,0 -4.2625,-0.18747 -2.75,-0.41659 z m -260.2182,-55.53375 c 0.0406,-1.59748 2.78664,-5.26489 3.44738,-4.60415 0.65734,0.65733 -1.76028,5.83627 -2.72918,5.84635 -0.4125,0.004 -0.73569,-0.5547 -0.7182,-1.2422 z m 7.03857,-3.61852 c -1.06158,-1.98357 -0.51915,-3.13148 1.47972,-3.13148 0.66922,0 1.43181,1.125 1.69466,2.5 0.5742,3.00373 -1.66626,3.44943 -3.17438,0.63148 z M 221.7378,265.722 c -0.30137,-0.31612 -4.80137,-0.83372 -10,-1.15021 -5.19863,-0.31649 -13.50206,-1.11991 -18.45206,-1.78539 l -9,-1.20995 -0.31809,-3.87959 c -0.31062,-3.78846 -0.25189,-3.86465 2.5,-3.24348 11.62446,2.62397 81.627,3.28026 87.54986,0.8208 2.34704,-0.97461 2.87518,-0.86641 3.75,0.76821 1.41084,2.63617 1.27558,7.01366 -0.23177,7.50082 -2.87841,0.93029 -55.04621,2.96734 -55.79794,2.17879 z m 77.47989,-8.15662 c -0.36962,-1.9702 -0.45718,-3.79703 -0.19459,-4.05962 0.26259,-0.26259 3.80411,-1.16869 7.87004,-2.01354 4.06593,-0.84485 7.8201,-1.95902 8.3426,-2.47593 0.5225,-0.51691 1.49098,-0.93984 2.15217,-0.93984 1.41591,0 3.39751,5.18887 3.39858,8.89922 7.3e-4,2.54427 -0.14593,2.60078 -6.75,2.60078 -3.71291,0 -8.41486,0.3535 -10.44877,0.78556 -3.64804,0.77495 -3.70709,0.73715 -4.37003,-2.79663 z M 150.28574,255.5622 c -19.22969,-4.44474 -27.0535,-6.39635 -34,-8.48111 -3.85,-1.15544 -9.25,-2.74278 -12,-3.5274 -6.44385,-1.83855 -27.864821,-9.97834 -30.203725,-11.47716 -1.646668,-1.05522 -1.629701,-1.09408 0.203729,-0.4666 16.536216,5.65941 52.875686,15.46244 67.249996,18.14154 7.44731,1.38803 6.76035,-0.2859 -2.26226,-5.51248 -4.11826,-2.3856 -7.48774,-4.7481 -7.48774,-5.25 0,-1.3517 0.9099,-1.13135 4.50621,1.0913 3.64389,2.25205 21.18207,8.97551 23.49379,9.00661 3.44708,0.0464 4.29935,1.55247 3.03921,5.37073 -0.65687,1.99035 -1.49692,3.57318 -1.86676,3.51739 -0.36985,-0.0558 -5.17245,-1.14156 -10.67245,-2.41282 z m 224.65852,-17.06123 c -0.71757,-3.08644 -1.15929,-5.7496 -0.98159,-5.91814 0.17769,-0.16855 3.11393,-1.43611 6.52498,-2.81682 6.90613,-2.79542 6.95831,-2.77338 9.51819,4.01845 1.86787,4.95581 1.52374,5.4126 -5.7201,7.59277 -2.75,0.82767 -5.68328,1.78173 -6.5184,2.12015 -1.17557,0.47638 -1.81298,-0.65173 -2.82308,-4.99641 z m -167.57123,-6.3673 c 4.38153,-1.04747 5.57105,-1.98298 4.96188,-3.90231 -0.40587,-1.27876 0.59331,-2.07789 4.20932,-3.36659 l 4.74151,-1.68981 -3.14913,2.70075 c -1.73202,1.4854 -3.66036,3.71324 -4.28519,4.95074 -0.92313,1.82831 -1.92597,2.23082 -5.35086,2.14764 -4.0061,-0.0973 -4.06194,-0.13891 -1.12753,-0.84042 z m 40.61271,-0.25722 c -0.66,-0.66 -1.2,-1.7483 -1.2,-2.41844 0,-0.67014 -1.575,-2.19184 -3.5,-3.38156 -4.96079,-3.06594 -4.3433,-4.10274 0.95432,-1.60236 2.52277,1.1907 4.47413,2.80813 4.5,3.72992 0.0675,2.40501 2.08204,3.67357 6.55836,4.12982 3.71798,0.37896 3.6462,0.41777 -1.06268,0.57452 -2.81816,0.0938 -5.58034,-0.36224 -6.25,-1.0319 z m -142.61677,-2.27181 c -5.720796,-2.05531 -8.712448,-5.49503 -9.29807,-10.69065 -0.651424,-5.77942 1.994828,-12.67999 4.17022,-10.87458 0.82065,0.68108 5.50808,1.36993 10.74989,1.57977 8.45086,0.3383 9.41198,0.58023 10.58613,2.66468 2.24867,3.99199 0.90008,10.57867 -2.9326,14.32323 -4.06538,3.97192 -8.05567,4.8729 -13.27557,2.99755 z m 30.82253,-2.27819 c -1.51882,-5.00109 -20.05614,-40.25 -21.16738,-40.25 -0.71437,0 -8.53116,4.75028 -17.370627,10.55618 -10.322564,6.78002 -16.835288,10.44666 -18.206164,10.25 -1.581236,-0.22683 2.588294,-3.61051 16.088439,-13.05618 10.022552,-7.0125 18.448292,-12.75 18.723852,-12.75 0.94505,0 5.9577,8.20907 12.21249,20 1.89644,3.575 4.29097,7.85 5.32118,9.5 1.03021,1.65 3.00006,5.3625 4.37745,8.25 1.3774,2.8875 3.14767,5.25 3.93395,5.25 0.78628,0 3.35637,-0.6798 5.71131,-1.51068 4.16133,-1.4682 6.29574,-1.29401 4.40307,0.35933 -1.12092,0.97918 -11.32431,5.15135 -12.59807,5.15135 -0.49392,0 -1.13719,-0.7875 -1.4295,-1.75 z m 7.59424,-9.69098 c 0,-1.05548 1.91911,-1.49891 2.48992,-0.57533 0.34546,0.55897 -0.0734,1.01631 -0.9309,1.01631 -0.85746,0 -1.55902,-0.19844 -1.55902,-0.44098 z m 84.2901,-15.06838 c -1.75939,-1.23233 -2.63977,-1.28844 -4.7966,-0.30572 -2.06391,0.94038 -3.06769,0.93758 -4.58946,-0.0128 -1.07127,-0.66902 -4.07543,-1.49071 -6.6759,-1.82597 -2.60048,-0.33526 -5.66193,-1.45479 -6.80322,-2.48785 -1.49905,-1.3569 -2.91824,-1.70967 -5.11248,-1.27082 -2.57847,0.5157 -3.36042,0.15386 -5.17523,-2.39482 -1.89961,-2.66775 -2.56899,-2.94446 -6.00726,-2.48329 -3.75586,0.50376 -3.88445,0.42025 -4.38116,-2.8452 -0.28146,-1.85031 -0.38189,-3.50988 -0.22319,-3.68794 0.50348,-0.56489 6.06671,2.62758 7.41968,4.2578 0.71478,0.86127 2.04936,1.56594 2.96572,1.56594 0.91637,0 3.43141,0.9 5.589,2 2.15759,1.1 4.71201,2 5.67649,2 0.96449,0 3.81645,0.70035 6.33768,1.55633 4.70334,1.59683 33.48776,2.68081 33.48646,1.26106 -6.8e-4,-0.73327 1.6126,-1.28833 6.74937,-2.32219 2.54601,-0.51242 3.25,-0.3196 3.25,0.89016 0,2.00323 -2.51724,3.18522 -7.5,3.52168 -2.2,0.14855 -4.82197,1.00618 -5.8266,1.90584 -1.69082,1.51415 -2.0384,1.51419 -4.6757,5.9e-4 -2.68419,-1.54052 -2.94918,-1.52456 -4.57838,0.27568 -2.08419,2.303 -2.38124,2.32625 -5.12922,0.40149 z m 32.21059,-6.86648 c -1.78081,-1.30216 -1.70575,-1.46676 1.4018,-3.07373 3.89894,-2.01622 4.83386,-1.46196 3.28139,1.94534 -1.30699,2.86852 -2.05646,3.0491 -4.68319,1.12839 z m 11.0834,-4.93901 c -1.69489,-1.23934 -1.65502,-1.40865 0.69425,-2.94796 2.83967,-1.86062 3.72166,-1.40335 3.72166,1.92948 0,2.60535 -1.70724,2.99911 -4.41591,1.01848 z m -93.23901,-7.22828 c -0.32569,-0.84872 -0.28998,-1.8453 0.0794,-2.21463 0.81901,-0.81901 3.80734,0.95308 4.34938,2.5792 0.59254,1.77761 -3.74368,1.42066 -4.42873,-0.36457 z m 101.82159,-0.45687 c 0.50335,-1.51005 2.11144,-1.66567 2.58333,-0.25 0.22917,0.6875 -0.33333,1.25 -1.25,1.25 -0.91667,0 -1.51667,-0.45 -1.33333,-1 z m -59.9763,-72.75 c 0.425,-2.20684 2.20351,-2.15881 2.63295,0.0711 0.19702,1.02305 -0.31993,1.6789 -1.32332,1.6789 -1.02996,0 -1.52043,-0.6554 -1.30963,-1.75 z m 13.43463,-0.0477 c -0.27117,-0.43876 -0.0915,-1.44749 0.39934,-2.24164 0.67454,-1.09142 1.17421,-1.16206 2.04689,-0.28938 0.63498,0.63498 0.85216,1.64371 0.48262,2.24164 -0.78966,1.27769 -2.23008,1.42001 -2.92885,0.28938 z"
         id="path3000"
         inkscape:connector-curvature="0" />
      <path
         style="fill:#684525"
         d="m 377.78574,352.63547 c 0,-0.24254 0.45,-0.7191 1,-1.05902 0.55,-0.33992 1,-0.14148 1,0.44098 0,0.58246 -0.45,1.05902 -1,1.05902 -0.55,0 -1,-0.19844 -1,-0.44098 z m 13.23834,-0.2461 c 0.95609,-0.25029 2.75609,-0.25937 4,-0.0202 1.24391,0.23919 0.46166,0.44398 -1.73834,0.45508 -2.2,0.0111 -3.21775,-0.18461 -2.26166,-0.4349 z M 129.81754,296.82645 c 0.0406,-1.59748 2.78664,-5.26489 3.44738,-4.60415 0.65734,0.65733 -1.76028,5.83627 -2.72918,5.84635 -0.4125,0.004 -0.73569,-0.5547 -0.7182,-1.2422 z m 6.9682,-3.75 c -0.7257,-1.35599 -0.73703,-2 -0.0352,-2 0.56935,0 1.32113,-0.1125 1.67063,-0.25 0.34949,-0.1375 1.00999,0.7625 1.46777,2 1.08277,2.92701 -1.55673,3.13965 -3.10322,0.25 z m 84.94577,-27.36073 c -0.30482,-0.31958 -4.57982,-0.84575 -9.5,-1.16926 -4.92017,-0.32351 -13.22077,-1.12534 -18.44577,-1.78185 l -9.5,-1.19365 -0.31809,-3.87685 c -0.31055,-3.78487 -0.25124,-3.86182 2.5,-3.24355 1.54995,0.34831 7.31809,1.12655 12.81809,1.72942 12.89352,1.41331 70.86833,0.71635 74.73177,-0.89841 2.37668,-0.99335 2.87214,-0.87948 3.81165,0.87601 0.59394,1.10978 0.93964,3.18766 0.76823,4.61751 -0.26102,2.1774 -0.88024,2.64661 -3.81165,2.88827 -18.7032,1.54187 -52.30144,2.84159 -53.05423,2.05236 z m 77.47335,-8.21873 c -0.36256,-1.93259 -0.46732,-3.70567 -0.23281,-3.94019 0.23452,-0.23451 3.76967,-1.12966 7.8559,-1.98923 4.08624,-0.85957 7.86338,-1.99671 8.39365,-2.52698 0.53028,-0.53028 1.50512,-0.96414 2.16631,-0.96414 1.41624,0 3.39783,5.18996 3.39783,8.89922 0,2.56189 -0.10842,2.60078 -7.25,2.60078 -3.9875,0 -8.69488,0.32273 -10.46085,0.71717 -3.06714,0.68507 -3.24034,0.55991 -3.87003,-2.79663 z m -139.91912,-0.15031 c -5.82782,-0.97934 -30.36821,-6.8603 -39.5,-9.46595 -5.775,-1.64782 -12.75,-3.6165 -15.5,-4.37484 -6.0279,-1.66225 -28.615729,-10.18086 -29.425046,-11.09715 -0.316223,-0.35802 0.283432,-0.34117 1.332566,0.0374 1.049133,0.37861 5.774133,1.77801 10.5,3.10976 4.725866,1.33175 10.493596,3.0947 12.817177,3.91765 4.006353,1.41895 32.340123,8.33013 42.525303,10.37278 6.65506,1.33468 6.16369,-0.44351 -1.31193,-4.74764 -5.03334,-2.89798 -11.71618,-8.33587 -8.43807,-6.86613 0.55,0.24659 3.925,1.8331 7.5,3.52557 3.575,1.69248 10.43675,4.36897 15.24834,5.94775 4.81159,1.57879 8.72879,3.32053 8.7049,3.87053 -0.12574,2.89433 -2.58725,6.0838 -4.45324,5.77023 z M 375.43202,240.8799 c -0.34802,-1.8169 -0.89997,-4.47143 -1.22657,-5.89897 -0.55207,-2.41313 -0.16988,-2.75406 5.43868,-4.85152 3.31787,-1.2408 6.55871,-2.08059 7.20187,-1.86621 0.64315,0.21439 1.96873,2.49562 2.94572,5.0694 2.07167,5.45761 1.80756,5.84348 -5.50598,8.04463 -2.75,0.82767 -5.72472,1.79764 -6.61048,2.15549 -1.23022,0.497 -1.7599,-0.12939 -2.24324,-2.65282 z M 105.44093,229.63979 c -7.505763,-2.7191 -10.716784,-8.20746 -9.251763,-15.81334 1.070217,-5.5562 1.520017,-5.81224 8.294193,-4.72129 3.35911,0.54096 8.51268,1.09331 11.45239,1.22743 l 5.34493,0.24386 0.87632,4.16328 c 0.69855,3.31874 0.49621,4.92848 -0.99747,7.93547 -3.36489,6.77397 -9.15864,9.34106 -15.7186,6.96459 z m 30.59954,-2.81334 c -0.61049,-2.46152 -18.93046,-38.70048 -20.29156,-40.13899 -0.47804,-0.50523 -7.86745,3.78139 -17.117315,9.9298 -14.221033,9.45274 -20.845851,13.00179 -20.845851,11.16753 0,-0.57384 35.659736,-25.70834 36.473876,-25.70834 0.94505,0 5.9577,8.20907 12.21249,20 1.89644,3.575 4.29097,7.85 5.32118,9.5 1.03021,1.65 3.00006,5.3625 4.37745,8.25 1.3774,2.8875 3.14767,5.25 3.93395,5.25 0.78628,0 3.35637,-0.6798 5.71131,-1.51068 4.16133,-1.4682 6.29574,-1.29401 4.40307,0.35933 -1.15102,1.00547 -11.3402,5.15135 -12.6603,5.15135 -0.52815,0 -1.21138,-1.0125 -1.5183,-2.25 z m 7.74527,-9.19098 c 0,-1.05548 1.91911,-1.49891 2.48992,-0.57533 0.34546,0.55897 -0.0734,1.01631 -0.9309,1.01631 -0.85746,0 -1.55902,-0.19844 -1.55902,-0.44098 z m 76.25,-16.2773 c -1.71758,-0.61611 -1.57816,-2.28172 0.19098,-2.28172 1.65637,0 2.96732,1.64896 1.82533,2.29596 -0.42147,0.23878 -1.32881,0.23237 -2.01631,-0.0142 z m 9.25,-0.28172 c -0.33992,-0.55 0.33508,-1 1.5,-1 1.16492,0 1.83992,0.45 1.5,1 -0.33992,0.55 -1.01492,1 -1.5,1 -0.48508,0 -1.16008,-0.45 -1.5,-1 z m -22.04112,-3.06653 c -1.06021,-1.71546 -0.16505,-1.83976 3.04112,-0.42226 l 3,1.32635 -2.69098,0.0812 c -1.48004,0.0447 -2.9876,-0.39872 -3.35014,-0.98531 z m -10.50821,-3.49291 c -1.29634,-1.56199 -0.54289,-1.72786 2.47622,-0.54514 1.66146,0.65087 1.70597,0.83962 0.32311,1.37027 -0.88208,0.33849 -2.14177,-0.0328 -2.79933,-0.82513 z m -10.07823,-6.19056 c -1.26951,-1.61876 -1.22245,-1.63998 0.62756,-0.28297 1.1,0.80687 2.1875,1.59437 2.41667,1.75 0.22916,0.15563 -0.0532,0.28297 -0.62756,0.28297 -0.57432,0 -1.66182,-0.7875 -2.41667,-1.75 z m 33.31793,-78 c 0.425,-2.20684 2.20351,-2.15881 2.63295,0.0711 0.19702,1.02305 -0.31993,1.6789 -1.32332,1.6789 -1.02996,0 -1.52043,-0.6554 -1.30963,-1.75 z m 13.43463,-0.0477 c -0.27117,-0.43876 -0.0915,-1.44749 0.39934,-2.24164 0.67454,-1.09142 1.17421,-1.16206 2.04689,-0.28938 0.63498,0.63498 0.85216,1.64371 0.48262,2.24164 -0.78966,1.27769 -2.23008,1.42001 -2.92885,0.28938 z"
         id="path2998"
         inkscape:connector-curvature="0" />
    </g>
    <rect
       style="fill:#684525;fill-opacity:1;fill-rule:nonzero;stroke:none"
       id="rect3082"
       width="5.97575"
       height="110.03242"
       x="116.63441"
       y="245.34135"
       ry="15.418556"
       rx="0" />
    <rect
       style="fill:#684525;fill-opacity:1;fill-rule:nonzero;stroke:none"
       id="rect3082-2"
       width="6.6464596"
       height="105.33743"
       x="277.36884"
       y="247.08868"
       ry="14.760663"
       rx="0" />
    <path
       sodipodi:type="arc"
       style="fill:#241f1c;fill-opacity:1;fill-rule:nonzero;stroke:none"
       id="path5322"
       sodipodi:cx="119.7217"
       sodipodi:cy="356.09705"
       sodipodi:rx="14.42026"
       sodipodi:ry="2.6828392"
       d="m 134.14196,356.09705 a 14.42026,2.6828392 0 1 1 -28.84052,0 14.42026,2.6828392 0 1 1 28.84052,0 z"
       transform="matrix(0.58139534,0,0,1.5,50.116063,-178.70711)" />
    <path
       sodipodi:type="arc"
       style="fill:#241f1c;fill-opacity:1;fill-rule:nonzero;stroke:none"
       id="path5324"
       sodipodi:cx="281.69812"
       sodipodi:cy="358.10916"
       sodipodi:rx="14.755615"
       sodipodi:ry="3.353549"
       d="m 296.45374,358.10916 a 14.755615,3.353549 0 1 1 -29.51124,0 14.755615,3.353549 0 1 1 29.51124,0 z"
       transform="matrix(0.52272726,0,0,1.4,133.44077,-145.25579)" />
  </g>
</svg>
