<svg id="cloud" version="1.1" xmlns="http://www.w3.org/2000/svg" xmlns:xlink="http://www.w3.org/1999/xlink" x="0px" y="0px"
	 width="250" height="210" viewBox="0 0 250 210">
    <path transform="translate(0,-852.36218)"
       d="m 145.41082,860.46751 c -14.59406,0 -27.255,7.96258 -34.33738,19.72196 -6.57086,-4.69847 -14.535989,-7.5393 -23.1876,-7.53928 -22.26583,0 -40.356286,18.30816 -40.356286,40.84192 0,1.6559 0.303676,3.23864 0.493353,4.84311 -19.229361,3.10515 -33.992039,19.8121 -33.992039,40.14292 0,20.14456 14.479027,36.81709 33.44935,40.14291 -0.384394,2.26185 -0.690699,4.56785 -0.690699,6.94015 0,22.5338 18.090447,40.792 40.356286,40.792 10.905897,0 20.759925,-4.4088 28.022465,-11.5336 7.40121,8.9097 18.34301,14.729 30.7359,14.729 17.682,0 32.54653,-11.6267 37.98819,-27.6606 4.35553,1.63 8.99944,2.6961 13.91257,2.6961 22.26583,0 40.30693,-18.3081 40.30694,-40.84188 0,-11.33126 -4.56457,-21.56025 -11.93914,-28.95884 3.72306,-6.18164 6.01891,-13.35584 6.01891,-21.11996 0,-22.53378 -18.09044,-40.79201 -40.3563,-40.79199 -2.34387,0 -4.62288,0.26014 -6.85761,0.64908 -3.59545,-18.81302 -19.93237,-33.053 -39.56691,-33.053 z" style="fill-opacity:0;stroke:#000000;stroke-width:10;"/>
</svg>