<?xml version="1.0" encoding="UTF-8" standalone="no"?>
<svg
   xmlns:osb="http://www.openswatchbook.org/uri/2009/osb"
   xmlns:dc="http://purl.org/dc/elements/1.1/"
   xmlns:cc="http://creativecommons.org/ns#"
   xmlns:rdf="http://www.w3.org/1999/02/22-rdf-syntax-ns#"
   xmlns:svg="http://www.w3.org/2000/svg"
   xmlns="http://www.w3.org/2000/svg"
   xmlns:xlink="http://www.w3.org/1999/xlink"
   xmlns:sodipodi="http://sodipodi.sourceforge.net/DTD/sodipodi-0.dtd"
   xmlns:inkscape="http://www.inkscape.org/namespaces/inkscape"
   id="cloud"
   version="1.1"
   x="0px"
   y="0px"
   width="200"
   height="100"
   viewBox="0 0 200 100"
   inkscape:version="0.48.4 r9939"
   sodipodi:docname="logo.svg">
  <metadata
     id="metadata3001">
    <rdf:RDF>
      <cc:Work
         rdf:about="">
        <dc:format>image/svg+xml</dc:format>
        <dc:type
           rdf:resource="http://purl.org/dc/dcmitype/StillImage" />
      </cc:Work>
    </rdf:RDF>
  </metadata>
  <defs
     id="defs2999">
    <linearGradient
       id="linearGradient5227"
       osb:paint="solid">
      <stop
         style="stop-color:#009d00;stop-opacity:1;"
         offset="0"
         id="stop5229" />
    </linearGradient>
    <linearGradient
       inkscape:collect="always"
       xlink:href="#linearGradient5227"
       id="linearGradient3019"
       gradientUnits="userSpaceOnUse"
       gradientTransform="matrix(0.80156781,0,0,0.8015678,14.481551,19.650164)"
       x1="20.2741"
       y1="60.74059"
       x2="162.74651"
       y2="60.74059" />
  </defs>
  <sodipodi:namedview
     pagecolor="#000000"
     bordercolor="#666666"
     borderopacity="1"
     objecttolerance="10"
     gridtolerance="10"
     guidetolerance="10"
     inkscape:pageopacity="0"
     inkscape:pageshadow="2"
     inkscape:window-width="1366"
     inkscape:window-height="706"
     id="namedview2997"
     showgrid="false"
     inkscape:zoom="0.91747109"
     inkscape:cx="230.62565"
     inkscape:cy="88.416199"
     inkscape:window-x="-8"
     inkscape:window-y="-8"
     inkscape:window-maximized="1"
     inkscape:current-layer="cloud" />
  <path
     d="m 115.42915,4.6581834 c -12.12074,0 -22.635964,3.7637386 -28.518055,9.3221486 -5.457262,-2.220876 -12.072496,-3.563659 -19.25787,-3.56365 -18.492321,0 -33.516886,8.65387 -33.516886,19.305111 0,0.782701 0.252211,1.530833 0.409741,2.289226 -15.970455,1.467742 -28.2312224,9.364769 -28.2312224,18.974709 0,9.521914 12.0251874,17.402664 27.7805074,18.974701 -0.31925,1.069135 -0.573644,2.159153 -0.573644,3.280476 0,10.651251 15.024558,19.281522 33.516888,19.281522 9.057614,0 17.241626,-2.083956 23.273342,-5.451707 6.14689,4.211439 15.234329,6.962096 25.526909,6.962096 14.68535,0 27.0307,-5.495693 31.55013,-13.074586 3.61737,0.770471 7.47427,1.274386 11.55474,1.274386 18.49232,0 33.47591,-8.653842 33.47591,-19.305091 0,-5.356028 -3.791,-10.191072 -9.91575,-13.688228 3.09209,-2.921934 4.99884,-6.313026 4.99884,-9.982959 0,-10.651242 -15.02455,-19.281522 -33.51689,-19.281512 -1.94664,0 -3.83942,0.122959 -5.69542,0.306801 -2.9861,-8.892512 -16.55433,-15.6234436 -32.86127,-15.6234436 z"
     style="fill-opacity:0;stroke:#009d00;stroke-width:6.26555204;stroke-opacity:1"
     id="path2995"
     inkscape:connector-curvature="0" />
  <text
     xml:space="preserve"
     style="font-size:24.01236534px;font-style:normal;font-variant:normal;font-weight:normal;font-stretch:normal;text-align:start;line-height:150%;letter-spacing:0px;word-spacing:0px;writing-mode:lr-tb;text-anchor:start;fill:#ffffff;fill-opacity:1;stroke:#ffffff;stroke-width:0.84039754;stroke-linejoin:miter;stroke-miterlimit:4;stroke-opacity:1;stroke-dasharray:none;stroke-dashoffset:0;font-family:Sans;-inkscape-font-specification:Sans"
     x="33.216404"
     y="73.204781"
     id="text3003"
     sodipodi:linespacing="150%"
     transform="scale(1.2114057,0.82548729)"><tspan
       sodipodi:role="line"
       id="tspan3005"
       x="33.216404"
       y="73.204781"
       style="font-size:24.01236534px;font-style:normal;font-variant:normal;font-weight:normal;font-stretch:normal;text-align:start;line-height:150%;writing-mode:lr-tb;text-anchor:start;fill:#ffffff;fill-opacity:1;stroke:url(#linearGradient3019);stroke-width:0.84039754;stroke-linejoin:miter;stroke-miterlimit:4;stroke-opacity:1;stroke-dasharray:none;stroke-dashoffset:0;font-family:Sans;-inkscape-font-specification:Sans">SixDegree</tspan></text>
</svg>
